<?xml version="1.0" encoding="UTF-8"?>
<svg id="Capa_1" xmlns="http://www.w3.org/2000/svg" version="1.1" xmlns:xlink="http://www.w3.org/1999/xlink" viewBox="0 0 595.28 841.89">
  <!-- Generator: Adobe Illustrator 29.0.0, SVG Export Plug-In . SVG Version: 2.1.0 Build 186)  -->
  <defs>
    <style>
      .st0 {
        font-size: 14px;
      }

      .st0, .st1 {
        font-family: ArialNarrow, Arial;
      }

      .st2 {
        stroke-width: .75px;
      }

      .st2, .st3, .st4, .st5 {
        fill: none;
      }

      .st2, .st4, .st5 {
        stroke: #000;
      }

      .st2, .st5 {
        stroke-linecap: round;
        stroke-linejoin: round;
      }

      .st1 {
        font-size: 12px;
      }

      .st6 {
        letter-spacing: -.01em;
      }

      .st7 {
        clip-path: url(#clippath-1);
      }

      .st4 {
        stroke-miterlimit: 10;
        stroke-width: 2px;
      }

      .st8 {
        clip-path: url(#clippath-3);
      }

      .st5 {
        stroke-width: .5px;
      }

      .st9 {
        clip-path: url(#clippath-2);
      }

      .st10 {
        font-family: ArialNarrow-Bold, Arial;
        font-size: 21px;
        font-weight: 700;
      }

      .st11 {
        clip-path: url(#clippath);
      }

      .st12 {
        letter-spacing: -.06em;
      }
    </style>
    <clipPath id="clippath">
      <rect class="st3" x="0" y="0" width="595.28" height="841.89"/>
    </clipPath>
    <clipPath id="clippath-1">
      <rect class="st3" x="0" y="0" width="595.28" height="841.89"/>
    </clipPath>
    <clipPath id="clippath-2">
      <rect class="st3" x="0" y="0" width="595.28" height="841.89"/>
    </clipPath>
    <clipPath id="clippath-3">
      <rect class="st3" x="0" y="0" width="595.28" height="841.89"/>
    </clipPath>
  </defs>
  <g class="st11">
    <g class="st7">
      <path class="st2" d="M133.8,249.45c0-11.27-9.14-20.41-20.41-20.41s-20.41,9.14-20.41,20.41"/>
      <line class="st2" x1="92.98" y1="108.57" x2="133.8" y2="108.57"/>
      <line class="st2" x1="189.92" y1="108.57" x2="189.92" y2="90.71"/>
      <line class="st2" x1="36.85" y1="108.57" x2="36.85" y2="90.71"/>
      <path class="st2" d="M189.92,108.57c0,20.3-8.06,39.77-22.42,54.12-14.35,14.35-33.82,22.42-54.12,22.42s-39.76-8.06-54.12-22.42c-14.35-14.35-22.42-33.82-22.42-54.12"/>
      <line class="st2" x1="133.8" y1="156.47" x2="147.4" y2="90.71"/>
      <line class="st2" x1="92.98" y1="156.47" x2="79.37" y2="90.71"/>
      <line class="st2" x1="92.98" y1="156.47" x2="133.8" y2="156.47"/>
      <path class="st2" d="M92.98,156.47c0-11.27,9.14-20.41,20.41-20.41s20.41,9.14,20.41,20.41-9.14,20.41-20.41,20.41-20.41-9.14-20.41-20.41Z"/>
      <line class="st2" x1="198.43" y1="90.71" x2="198.43" y2="249.45"/>
      <line class="st2" x1="28.35" y1="90.71" x2="28.35" y2="249.45"/>
      <line class="st2" x1="147.4" y1="90.71" x2="198.43" y2="90.71"/>
      <line class="st2" x1="79.37" y1="90.71" x2="147.4" y2="90.71"/>
      <line class="st2" x1="28.35" y1="90.71" x2="79.37" y2="90.71"/>
      <line class="st2" x1="198.43" y1="249.45" x2="28.35" y2="249.45"/>
      <line class="st2" x1="534.96" y1="708.2" x2="534.96" y2="749.02"/>
      <line class="st2" x1="534.96" y1="805.14" x2="552.82" y2="805.14"/>
      <line class="st2" x1="534.96" y1="652.07" x2="552.82" y2="652.07"/>
      <path class="st2" d="M534.96,805.14c-20.3,0-39.77-8.06-54.12-22.42-14.35-14.35-22.42-33.82-22.42-54.12s8.06-39.76,22.42-54.12c14.35-14.36,33.82-22.42,54.12-22.42"/>
      <line class="st2" x1="487.06" y1="749.02" x2="552.82" y2="762.62"/>
      <line class="st2" x1="487.06" y1="708.2" x2="552.82" y2="694.59"/>
      <line class="st2" x1="487.06" y1="708.2" x2="487.06" y2="749.02"/>
      <path class="st2" d="M487.06,708.2c11.27,0,20.41,9.14,20.41,20.41s-9.14,20.41-20.41,20.41-20.41-9.14-20.41-20.41,9.14-20.41,20.41-20.41Z"/>
      <line class="st2" x1="552.82" y1="813.65" x2="394.08" y2="813.65"/>
      <line class="st2" x1="552.82" y1="643.57" x2="394.08" y2="643.57"/>
      <line class="st2" x1="552.82" y1="762.62" x2="552.82" y2="813.65"/>
      <line class="st2" x1="552.82" y1="694.59" x2="552.82" y2="762.62"/>
      <line class="st2" x1="552.82" y1="643.57" x2="552.82" y2="694.59"/>
      <line class="st2" x1="253.2" y1="708.2" x2="253.2" y2="749.02"/>
      <line class="st2" x1="253.2" y1="805.14" x2="235.34" y2="805.14"/>
      <line class="st2" x1="253.2" y1="652.07" x2="235.34" y2="652.07"/>
      <path class="st2" d="M253.2,805.14c20.3,0,39.76-8.06,54.12-22.42,14.35-14.35,22.42-33.82,22.42-54.12s-8.06-39.76-22.42-54.12c-14.35-14.36-33.82-22.42-54.12-22.42"/>
      <line class="st2" x1="301.11" y1="749.02" x2="235.34" y2="762.62"/>
      <line class="st2" x1="301.11" y1="708.2" x2="235.34" y2="694.59"/>
      <line class="st2" x1="301.11" y1="708.2" x2="301.11" y2="749.02"/>
      <path class="st2" d="M301.11,708.2c-11.27,0-20.41,9.14-20.41,20.41s9.14,20.41,20.41,20.41,20.41-9.14,20.41-20.41-9.14-20.41-20.41-20.41Z"/>
      <path class="st2" d="M414.49,728.61c0-11.27-9.14-20.41-20.41-20.41s-20.41,9.14-20.41,20.41,9.14,20.41,20.41,20.41,20.41-9.14,20.41-20.41Z"/>
      <line class="st2" x1="394.08" y1="813.65" x2="394.08" y2="643.57"/>
      <line class="st2" x1="235.34" y1="813.65" x2="394.08" y2="813.65"/>
      <line class="st2" x1="235.34" y1="643.57" x2="394.08" y2="643.57"/>
      <line class="st2" x1="235.34" y1="762.62" x2="235.34" y2="813.65"/>
      <line class="st2" x1="235.34" y1="694.59" x2="235.34" y2="762.62"/>
      <line class="st2" x1="235.34" y1="643.57" x2="235.34" y2="694.59"/>
    </g>
    <g class="st9">
      <path class="st2" d="M133.8,433.7c0-11.27-9.14-20.41-20.41-20.41s-20.41,9.14-20.41,20.41"/>
      <line class="st2" x1="92.98" y1="292.82" x2="133.8" y2="292.82"/>
      <line class="st2" x1="189.92" y1="292.82" x2="189.92" y2="274.96"/>
      <line class="st2" x1="36.85" y1="292.82" x2="36.85" y2="274.96"/>
      <path class="st2" d="M189.92,292.82c0,20.3-8.06,39.77-22.42,54.12-14.35,14.35-33.82,22.42-54.12,22.42s-39.76-8.06-54.12-22.42c-14.35-14.35-22.42-33.82-22.42-54.12"/>
      <line class="st2" x1="133.8" y1="340.72" x2="147.4" y2="274.96"/>
      <line class="st2" x1="92.98" y1="340.72" x2="79.37" y2="274.96"/>
      <line class="st2" x1="92.98" y1="340.72" x2="133.8" y2="340.72"/>
      <path class="st2" d="M92.98,340.72c0-11.27,9.14-20.41,20.41-20.41s20.41,9.14,20.41,20.41-9.14,20.41-20.41,20.41-20.41-9.14-20.41-20.41Z"/>
      <line class="st2" x1="198.43" y1="274.96" x2="198.43" y2="433.7"/>
      <line class="st2" x1="28.35" y1="274.96" x2="28.35" y2="433.7"/>
      <line class="st2" x1="147.4" y1="274.96" x2="198.43" y2="274.96"/>
      <line class="st2" x1="79.37" y1="274.96" x2="147.4" y2="274.96"/>
      <line class="st2" x1="28.35" y1="274.96" x2="79.37" y2="274.96"/>
      <line class="st2" x1="198.43" y1="433.7" x2="28.35" y2="433.7"/>
      <path class="st2" d="M133.8,617.95c0-11.27-9.14-20.41-20.41-20.41s-20.41,9.14-20.41,20.41"/>
      <line class="st2" x1="92.98" y1="477.07" x2="133.8" y2="477.07"/>
      <line class="st2" x1="189.92" y1="477.07" x2="189.92" y2="459.21"/>
      <line class="st2" x1="36.85" y1="477.07" x2="36.85" y2="459.21"/>
      <path class="st2" d="M189.92,477.07c0,20.3-8.06,39.77-22.42,54.12-14.35,14.35-33.82,22.42-54.12,22.42s-39.76-8.06-54.12-22.42c-14.35-14.35-22.42-33.82-22.42-54.12"/>
      <line class="st2" x1="133.8" y1="524.98" x2="147.4" y2="459.21"/>
      <line class="st2" x1="92.98" y1="524.98" x2="79.37" y2="459.21"/>
      <line class="st2" x1="92.98" y1="524.98" x2="133.8" y2="524.98"/>
      <path class="st2" d="M92.98,524.98c0-11.27,9.14-20.41,20.41-20.41s20.41,9.14,20.41,20.41-9.14,20.41-20.41,20.41-20.41-9.14-20.41-20.41Z"/>
      <line class="st2" x1="198.43" y1="459.21" x2="198.43" y2="617.95"/>
      <line class="st2" x1="28.35" y1="459.21" x2="28.35" y2="617.95"/>
      <line class="st2" x1="147.4" y1="459.21" x2="198.43" y2="459.21"/>
      <line class="st2" x1="79.37" y1="459.21" x2="147.4" y2="459.21"/>
      <line class="st2" x1="28.35" y1="459.21" x2="79.37" y2="459.21"/>
      <line class="st2" x1="198.43" y1="617.95" x2="28.35" y2="617.95"/>
      <path class="st2" d="M502.3,249.45c0-11.27-9.14-20.41-20.41-20.41s-20.41,9.14-20.41,20.41"/>
      <line class="st2" x1="461.48" y1="108.57" x2="502.3" y2="108.57"/>
      <line class="st2" x1="558.42" y1="108.57" x2="558.42" y2="90.71"/>
      <line class="st2" x1="405.35" y1="108.57" x2="405.35" y2="90.71"/>
      <path class="st2" d="M558.42,108.57c0,20.3-8.06,39.77-22.42,54.12-14.35,14.35-33.82,22.42-54.12,22.42s-39.77-8.06-54.12-22.42c-14.36-14.35-22.42-33.82-22.42-54.12"/>
      <line class="st2" x1="502.3" y1="156.47" x2="515.9" y2="90.71"/>
      <line class="st2" x1="461.48" y1="156.47" x2="447.87" y2="90.71"/>
      <line class="st2" x1="461.48" y1="156.47" x2="502.3" y2="156.47"/>
      <path class="st2" d="M461.48,156.47c0-11.27,9.14-20.41,20.41-20.41s20.41,9.14,20.41,20.41-9.14,20.41-20.41,20.41-20.41-9.14-20.41-20.41Z"/>
      <line class="st2" x1="566.93" y1="90.71" x2="566.93" y2="249.45"/>
      <line class="st2" x1="396.85" y1="90.71" x2="396.85" y2="249.45"/>
      <line class="st2" x1="515.91" y1="90.71" x2="566.93" y2="90.71"/>
      <line class="st2" x1="447.87" y1="90.71" x2="515.9" y2="90.71"/>
      <line class="st2" x1="396.85" y1="90.71" x2="447.87" y2="90.71"/>
      <line class="st2" x1="566.93" y1="249.45" x2="396.85" y2="249.45"/>
      <path class="st2" d="M502.3,433.7c0-11.27-9.14-20.41-20.41-20.41s-20.41,9.14-20.41,20.41"/>
      <line class="st2" x1="461.48" y1="292.82" x2="502.3" y2="292.82"/>
      <line class="st2" x1="558.42" y1="292.82" x2="558.42" y2="274.96"/>
      <line class="st2" x1="405.35" y1="292.82" x2="405.35" y2="274.96"/>
      <path class="st2" d="M558.42,292.82c0,20.3-8.06,39.77-22.42,54.12-14.35,14.35-33.82,22.42-54.12,22.42s-39.77-8.06-54.12-22.42c-14.36-14.35-22.42-33.82-22.42-54.12"/>
      <line class="st2" x1="502.3" y1="340.72" x2="515.9" y2="274.96"/>
      <line class="st2" x1="461.48" y1="340.72" x2="447.87" y2="274.96"/>
      <line class="st2" x1="461.48" y1="340.72" x2="502.3" y2="340.72"/>
      <path class="st2" d="M461.48,340.72c0-11.27,9.14-20.41,20.41-20.41s20.41,9.14,20.41,20.41-9.14,20.41-20.41,20.41-20.41-9.14-20.41-20.41Z"/>
      <line class="st2" x1="566.93" y1="274.96" x2="566.93" y2="433.7"/>
      <line class="st2" x1="396.85" y1="274.96" x2="396.85" y2="433.7"/>
      <line class="st2" x1="515.91" y1="274.96" x2="566.93" y2="274.96"/>
      <line class="st2" x1="447.87" y1="274.96" x2="515.9" y2="274.96"/>
      <line class="st2" x1="396.85" y1="274.96" x2="447.87" y2="274.96"/>
      <line class="st2" x1="566.93" y1="433.7" x2="396.85" y2="433.7"/>
      <path class="st2" d="M502.3,617.95c0-11.27-9.14-20.41-20.41-20.41s-20.41,9.14-20.41,20.41"/>
      <line class="st2" x1="461.48" y1="477.07" x2="502.3" y2="477.07"/>
      <line class="st2" x1="558.42" y1="477.07" x2="558.42" y2="459.21"/>
      <line class="st2" x1="405.35" y1="477.07" x2="405.35" y2="459.21"/>
      <path class="st2" d="M558.42,477.07c0,20.3-8.06,39.77-22.42,54.12s-33.82,22.42-54.12,22.42-39.77-8.06-54.12-22.42c-14.36-14.35-22.42-33.82-22.42-54.12"/>
      <line class="st2" x1="502.3" y1="524.98" x2="515.9" y2="459.21"/>
      <line class="st2" x1="461.48" y1="524.98" x2="447.87" y2="459.21"/>
      <line class="st2" x1="461.48" y1="524.98" x2="502.3" y2="524.98"/>
      <circle class="st2" cx="481.89" cy="524.98" r="20.41" transform="translate(-164.22 224.37) rotate(-22.5)"/>
      <line class="st2" x1="566.93" y1="459.21" x2="566.93" y2="617.95"/>
      <line class="st2" x1="396.85" y1="459.21" x2="396.85" y2="617.95"/>
      <line class="st2" x1="515.91" y1="459.21" x2="566.93" y2="459.21"/>
      <line class="st2" x1="447.87" y1="459.21" x2="515.9" y2="459.21"/>
      <line class="st2" x1="396.85" y1="459.21" x2="447.87" y2="459.21"/>
      <line class="st2" x1="566.93" y1="617.95" x2="396.85" y2="617.95"/>
      <line class="st5" x1="212.6" y1="107.72" x2="382.68" y2="107.72"/>
      <line class="st5" x1="212.6" y1="124.72" x2="382.68" y2="124.72"/>
      <line class="st5" x1="212.6" y1="141.73" x2="382.68" y2="141.73"/>
      <line class="st5" x1="212.6" y1="158.74" x2="382.68" y2="158.74"/>
      <line class="st5" x1="212.6" y1="175.75" x2="382.68" y2="175.75"/>
      <line class="st5" x1="212.6" y1="192.76" x2="382.68" y2="192.76"/>
      <line class="st5" x1="212.6" y1="209.76" x2="382.68" y2="209.76"/>
      <line class="st5" x1="212.6" y1="226.77" x2="382.68" y2="226.77"/>
      <line class="st5" x1="212.6" y1="243.78" x2="382.68" y2="243.78"/>
      <line class="st5" x1="212.6" y1="260.79" x2="382.68" y2="260.79"/>
      <line class="st5" x1="212.6" y1="277.8" x2="382.68" y2="277.8"/>
      <line class="st5" x1="212.6" y1="294.8" x2="382.68" y2="294.8"/>
      <line class="st5" x1="212.6" y1="311.81" x2="382.68" y2="311.81"/>
      <line class="st5" x1="212.6" y1="328.82" x2="382.68" y2="328.82"/>
      <line class="st5" x1="212.6" y1="345.83" x2="382.68" y2="345.83"/>
      <line class="st5" x1="212.6" y1="362.83" x2="382.68" y2="362.83"/>
      <line class="st5" x1="212.6" y1="379.84" x2="382.68" y2="379.84"/>
      <line class="st5" x1="212.6" y1="396.85" x2="382.68" y2="396.85"/>
      <line class="st5" x1="212.6" y1="413.86" x2="382.68" y2="413.86"/>
      <line class="st5" x1="212.6" y1="430.87" x2="382.68" y2="430.87"/>
      <line class="st5" x1="212.6" y1="447.87" x2="382.68" y2="447.87"/>
      <line class="st5" x1="212.6" y1="464.88" x2="382.68" y2="464.88"/>
      <line class="st5" x1="212.6" y1="481.89" x2="382.68" y2="481.89"/>
      <line class="st5" x1="212.6" y1="498.9" x2="382.68" y2="498.9"/>
      <line class="st5" x1="212.6" y1="515.91" x2="382.68" y2="515.91"/>
      <line class="st5" x1="212.6" y1="532.91" x2="382.68" y2="532.91"/>
      <line class="st5" x1="212.6" y1="549.92" x2="382.68" y2="549.92"/>
      <line class="st5" x1="212.6" y1="566.93" x2="382.68" y2="566.93"/>
      <line class="st5" x1="212.6" y1="583.94" x2="382.68" y2="583.94"/>
      <line class="st5" x1="212.6" y1="600.95" x2="382.68" y2="600.95"/>
      <line class="st5" x1="42.45" y1="652.07" x2="212.53" y2="652.07"/>
      <line class="st5" x1="42.45" y1="669.08" x2="212.53" y2="669.08"/>
      <line class="st5" x1="42.45" y1="686.09" x2="212.53" y2="686.09"/>
      <line class="st5" x1="42.45" y1="703.1" x2="212.53" y2="703.1"/>
      <line class="st5" x1="42.45" y1="720.1" x2="212.53" y2="720.1"/>
      <line class="st5" x1="42.45" y1="737.11" x2="212.53" y2="737.11"/>
      <line class="st5" x1="42.45" y1="754.12" x2="212.53" y2="754.12"/>
      <line class="st5" x1="42.45" y1="771.13" x2="212.53" y2="771.13"/>
      <line class="st5" x1="42.45" y1="788.14" x2="212.53" y2="788.14"/>
      <line class="st5" x1="42.45" y1="805.14" x2="212.53" y2="805.14"/>
    </g>
    <text class="st10" transform="translate(56.94 51.84)"><tspan x="0" y="0">Club Sportivo</tspan></text>
    <text class="st1" transform="translate(89.06 66.24)"><tspan x="0" y="0">ROJAS (B)</tspan></text>
    <g class="st8">
      <line class="st4" x1="566.93" y1="70.87" x2="28.35" y2="70.87"/>
    </g>
    <text class="st0" transform="translate(435.1 48.84)"><tspan x="0" y="0">DE</tspan><tspan class="st12" x="15.94" y="0">P</tspan><tspan x="22.76" y="0">A</tspan><tspan class="st6" x="30.41" y="0">R</tspan><tspan class="st12" x="38.5" y="0">T</tspan><tspan x="44.68" y="0">AMEN</tspan><tspan class="st6" x="77.84" y="0">T</tspan><tspan x="84.66" y="0">O</tspan></text>
    <text class="st0" transform="translate(443.18 65.64)"><tspan x="0" y="0">BASQUETBOL</tspan></text>
  </g>
</svg>