<?xml version="1.0" encoding="UTF-8"?>
<svg xmlns="http://www.w3.org/2000/svg" version="1.1" viewBox="0 0 419.53 595.28">
  <!-- Generator: Adobe Illustrator 29.0.0, SVG Export Plug-In . SVG Version: 2.1.0 Build 186)  -->
  <defs>
    <style>
      .st0, .st1, .st2, .st3, .st4, .st5, .st6, .st7, .st8 {
        stroke-miterlimit: 10;
      }

      .st0, .st1, .st2, .st3, .st4, .st5, .st6, .st8 {
        stroke: #1d1d1b;
      }

      .st0, .st1, .st2, .st3, .st4, .st6, .st8 {
        fill: none;
      }

      .st0, .st2, .st3, .st4, .st7 {
        stroke-width: .75px;
      }

      .st9 {
        font-size: 11px;
      }

      .st9, .st10, .st11, .st12 {
        fill: #1d1d1b;
        font-family: JoyLikeSunshineThroughMyWindowpane, 'Joy Like Sunshine Through My Windowpane';
      }

      .st13, .st5 {
        fill: #fff;
      }

      .st1 {
        stroke-dasharray: 2.03 2.03;
      }

      .st1, .st6 {
        stroke-width: .5px;
      }

      .st10 {
        font-size: 14px;
      }

      .st2 {
        stroke-linecap: square;
      }

      .st3 {
        stroke-dasharray: 2.01 2.01;
      }

      .st4 {
        stroke-dasharray: 2.03 2.03;
      }

      .st11 {
        font-size: 21px;
      }

      .st12 {
        font-size: 10px;
      }

      .st14 {
        fill: #2a2324;
      }

      .st15 {
        fill: #1a1414;
      }

      .st7 {
        fill: #9d9d9c;
        stroke: #9d9d9c;
      }
    </style>
  </defs>
  <g id="Capa_3">
    <path class="st15" d="M329.06,57.46c-2.54-5.37-.14-10.86,1.44-16.1.1-.31-.4-.53-.54-.22-2.44,5.11-4.28,11.38-1.73,16.79.26.56,1.09.08.83-.48"/>
    <path class="st15" d="M339.28,56.12c.07-1.33.02-2.66-.01-3.99,0-.32-.51-.32-.5,0,.02,1.2-.07,2.38-.19,3.58-.11,1.14-.49,2.41-.35,3.55.03.27.43.46.58.15.45-.98.43-2.22.48-3.29"/>
    <path class="st15" d="M351.68,62.08c1.75-3.46,1.94-7.43,3.74-10.85.17-.32-.28-.58-.49-.28-1.84,2.7-2.08,6.05-3.27,9.03-.59,1.47-1.36,2.87-2.29,4.16-.51.71-1.06,1.37-1.65,2.01-.3.32-1.12,1.35-1.7,1.64-.06-.04-.12-.06-.18-.05-.04,0-.08,0-.12.02-.25.03-.41.18-.43.44,0,.04,0,.09-.01.13-.02.18.16.41.34.44,1.17.18,2.35-1.48,3.04-2.25,1.19-1.33,2.21-2.82,3.02-4.41"/>
    <path class="st15" d="M317.79,43c-.45-1.37-.75-2.72.01-4.06.76-1.33,2.04-1.85,3.47-2.13.24-.05.16-.38-.05-.39-3.26-.25-5.88,4.05-3.87,6.76.15.2.53.1.44-.18"/>
    <path class="st15" d="M372.89,59.4c1.78-4.65.62-9.96-3.39-13.09-3.59-2.8-8.76-2.85-12.54-.44-.67-5.47-4.76-10.16-9.99-11.88-5.64-1.86-11.86-.14-16.4,3.49-1.44-2.91-4.3-4.99-7.51-5.5-3.27-.52-6.54.77-8.72,3.24-2.23,2.52-3.02,5.84-2.25,9.1.73,3.12,2.59,5.83,4.6,8.29-.06.06-.1.15-.12.26-.65,4.92,3.25,9.3,2.22,14.19-.57,2.69-2.78,3.63-5.07,4.57-1.63.67-3.65,1.55-4.32,3.34-.83,2.23,1.54,2.9,3.16,3.4,2.87.89,5.49,2.42,8.07,3.94,4.89,2.88,9.7,5.94,14.69,8.65,3.7,2.01,8.18,3.16,11.55-.12,1.49-1.46,2.43-3.39,3.13-5.33.89-2.46,1.18-5.21,2.53-7.48,2.44-4.1,7.76-4.99,11.58-7.28,4.11-2.46,7.08-6.95,8.77-11.36M347.84,87.71c-1.06,1.91-2.62,3.58-4.84,4.04-2.18.45-4.39-.36-6.31-1.33-4.5-2.27-8.77-5.1-13.11-7.67-2.2-1.3-4.38-2.66-6.68-3.79-1.04-.52-2.11-.99-3.2-1.38-.31-.11-.75-.21-1.2-.33-.04-.08-.12-.15-.22-.15-.22,0-.48.01-.52-.28-.07-.48.75-.7,1.07-.81.2-.06.4-.13.59-.2,0,0,.01,0,.02.01.31.18.59-.03.67-.28.06-.02.11-.05.17-.07,5.81-.97,10.69,3.37,14.78,6.92,3.84,3.33,8.34,6.74,13.73,6.15.46-.05.46-.78,0-.73-11.61,1.27-17.11-15.36-28.95-12.84-.25-.1-.48.06-.58.27-.33.07-.66.15-.99.27-.52.18-1.11.52-1.19,1.12,0,.03,0,.05,0,.08-.56-.35-.86-.85-.48-1.66.89-1.92,3.92-2.47,5.63-3.32,1.43-.72,2.57-1.76,3.2-3.16,6.65-1.67,12.74,2.54,18.59,5.19.44.2.83-.44.38-.66-3.45-1.7-6.97-3.56-10.62-4.79-2.57-.86-5.57-1.34-8.14-.28.08-.23.14-.46.2-.7.19-.88.22-1.75.15-2.59,1.11-.24,2.19-.78,3.33-.96,1.5-.23,3.04-.16,4.53.11,2.74.51,5.3,1.68,7.74,3,2.76,1.5,5.44,3.17,8.05,4.91,1.05.7,2.1,1.42,3.13,2.15,0,.16.12.31.3.3.04,0,.08,0,.12,0,.2.14.41.29.61.43,1.25.89,2.48,2.02,3.86,2.74-1.88,3.1-2.05,7.09-3.82,10.28M352.76,75.96c-.32.35-.6.71-.85,1.09-.99-1.14-2.39-2.04-3.6-2.93.67-.14,1.32-.36,1.96-.66.8-.38,2.08-1.01,2.36-1.91.06-.18-.13-.37-.31-.31-.84.25-1.5,1.09-2.29,1.5-.77.41-1.6.67-2.46.84-1.28-.94-2.58-1.85-3.9-2.73-1.7-1.13-3.41-2.26-5.17-3.3,1.12-.4,2.29-1.17,2.77-2.24.12-.28-.19-.54-.43-.33-.46.4-.84.88-1.3,1.28-.46.4-.97.72-1.5,1.02-.99-.58-2-1.14-3.02-1.67-1.09-.56-2.2-1.08-3.35-1.51,1.01-.79,2.17-2.22,2.21-3.51,0-.3-.36-.33-.51-.13-.4.53-.58,1.23-.93,1.81-.35.58-.76,1.11-1.16,1.66,0,.01,0,.02-.01.03-1.39-.5-2.82-.88-4.29-1.06-1.07-.13-2.15-.14-3.22-.03-.56-.43-1.05-.91-1.42-1.53-.47-.78-.49-1.59-.74-2.43-.08-.25-.46-.27-.52,0-.36,1.44.61,3.12,1.85,4.08-.97.16-2.13.39-3.06.86-.57-3.42-2.56-6.66-2.3-10.18.3.2.78-.2.54-.53-3.41-4.81-7.81-11.11-3.34-16.75,1.91-2.41,4.95-3.82,8.03-3.37,3.17.46,5.92,2.57,7.18,5.51.13.31.55.29.76.11,4.2-3.67,10.23-5.42,15.67-3.78,5.22,1.58,9.35,6.42,9.66,11.92.02.32.41.65.73.42,3.49-2.61,8.54-2.83,12.06-.12,3.76,2.89,4.73,7.8,3.05,12.1-1.74,4.44-4.81,8.82-9.06,11.12-3.37,1.82-7.42,2.79-10.09,5.7"/>
    <path class="st15" d="M369.15,56.06c.05-.23-.29-.32-.36-.09-.66,2.24-1.34,4.51-2.65,6.48-1.19,1.78-2.76,2.99-4.68,3.92-.22.1-.07.44.16.38,4.57-1.19,6.65-6.56,7.53-10.68"/>
    <path class="st15" d="M349.4,38.84c-1.6-1.5-4.46-1.94-6.57-1.93-2.47,0-4.75.76-6.8,2.13-.15.1-.01.34.14.25,1.97-1.24,4.34-1.87,6.66-1.86,1.14,0,2.27.16,3.36.48,1.07.31,1.99.89,3.02,1.26.18.06.31-.19.18-.32"/>
    <path class="st14" d="M312.43,58.16c-.63-3-4.46-3.35-5.73-.77-1.42-2.74-5.53-4.85-7.19-1.11-1.7,3.84,1.79,8.48,5.29,9.77-.05.44.46.94.89.62,2.52-1.85,7.54-4.69,6.74-8.5ZM310.76,60.63c-.44.74-1.11,1.32-1.76,1.87-1.23,1.03-2.52,1.97-3.75,3-.03-.05-.06-.09-.11-.13-2.08-1.43-3.87-3.26-4.49-5.79-.39-1.57-.12-3.63,1.75-3.81,2-.2,2.75,1.33,3.66,2.79.31.5,1.16.18.97-.41,0,0,0-.01,0-.02.08-.02.15-.07.2-.14,1.19-1.68,2.52-1.61,3.99.2.17.89.02,1.7-.45,2.45Z"/>
  </g>
  <g id="Capa_2">
    <text class="st11" transform="translate(114.33 48.67)"><tspan x="0" y="0">Receta:</tspan></text>
    <text class="st12" transform="translate(46 38.67)"><tspan x="0" y="0">Salado</tspan><tspan x="0" y="12">Dulce</tspan></text>
    <rect class="st6" x="28.35" y="31.05" width="8.5" height="8.5"/>
    <rect class="st6" x="28.35" y="42.56" width="8.5" height="8.5"/>
    <text class="st10" transform="translate(29.23 86.22)"><tspan x="0" y="0">Ingredientes:</tspan></text>
    <line class="st2" x1="28.35" y1="113.39" x2="56.69" y2="113.39"/>
    <line class="st2" x1="70.87" y1="113.39" x2="184.25" y2="113.39"/>
    <line class="st2" x1="28.35" y1="133.23" x2="56.69" y2="133.23"/>
    <line class="st2" x1="70.87" y1="133.23" x2="184.25" y2="133.23"/>
    <line class="st2" x1="28.35" y1="153.07" x2="56.69" y2="153.07"/>
    <line class="st2" x1="70.87" y1="153.07" x2="184.25" y2="153.07"/>
    <line class="st2" x1="28.35" y1="172.91" x2="56.69" y2="172.91"/>
    <line class="st2" x1="70.87" y1="172.91" x2="184.25" y2="172.91"/>
    <line class="st2" x1="28.35" y1="192.76" x2="56.69" y2="192.76"/>
    <line class="st2" x1="70.87" y1="192.76" x2="184.25" y2="192.76"/>
    <line class="st2" x1="28.35" y1="212.6" x2="56.69" y2="212.6"/>
    <line class="st2" x1="70.87" y1="212.6" x2="184.25" y2="212.6"/>
    <line class="st2" x1="221.1" y1="113.39" x2="249.45" y2="113.39"/>
    <line class="st2" x1="263.62" y1="113.39" x2="377.01" y2="113.39"/>
    <line class="st2" x1="221.1" y1="133.23" x2="249.45" y2="133.23"/>
    <line class="st2" x1="263.62" y1="133.23" x2="377.01" y2="133.23"/>
    <line class="st2" x1="221.1" y1="153.07" x2="249.45" y2="153.07"/>
    <line class="st2" x1="263.62" y1="153.07" x2="377.01" y2="153.07"/>
    <line class="st2" x1="221.1" y1="172.91" x2="249.45" y2="172.91"/>
    <line class="st2" x1="263.62" y1="172.91" x2="377.01" y2="172.91"/>
    <line class="st2" x1="221.1" y1="192.76" x2="249.45" y2="192.76"/>
    <line class="st2" x1="263.62" y1="192.76" x2="377.01" y2="192.76"/>
    <line class="st2" x1="221.1" y1="212.6" x2="249.45" y2="212.6"/>
    <line class="st2" x1="263.62" y1="212.6" x2="377.01" y2="212.6"/>
    <text class="st10" transform="translate(65.72 525.59)"><tspan x="0" y="0">Coccion</tspan></text>
    <text class="st10" transform="translate(287.25 525.59)"><tspan x="0" y="0">Porciones</tspan></text>
    <text class="st10" transform="translate(178.09 525.59)"><tspan x="0" y="0">Dificultad</tspan></text>
    <line class="st8" x1="144.57" y1="516.6" x2="144.57" y2="559.12"/>
    <line class="st8" x1="260.79" y1="516.6" x2="260.79" y2="559.12"/>
    <rect class="st5" x="58.11" y="535.75" width="56.69" height="28.35"/>
    <rect class="st5" x="174.33" y="535.75" width="56.69" height="28.35"/>
    <rect class="st5" x="290.55" y="535.75" width="56.69" height="28.35"/>
    <text class="st10" transform="translate(28.5 256.3)"><tspan x="0" y="0">Preparacion:</tspan></text>
    <line class="st0" x1="28.35" y1="283.47" x2="377.01" y2="283.47"/>
    <line class="st0" x1="28.35" y1="297.64" x2="377.01" y2="297.64"/>
    <line class="st0" x1="28.35" y1="311.81" x2="377.01" y2="311.81"/>
    <line class="st0" x1="28.35" y1="325.99" x2="377.01" y2="325.99"/>
    <line class="st0" x1="28.35" y1="340.16" x2="377.01" y2="340.16"/>
    <line class="st0" x1="28.35" y1="354.33" x2="377.01" y2="354.33"/>
    <line class="st0" x1="28.35" y1="368.5" x2="377.01" y2="368.5"/>
    <line class="st0" x1="28.35" y1="382.68" x2="377.01" y2="382.68"/>
    <line class="st0" x1="28.35" y1="396.85" x2="377.01" y2="396.85"/>
    <line class="st0" x1="28.35" y1="411.02" x2="377.01" y2="411.02"/>
    <line class="st0" x1="28.35" y1="425.2" x2="377.01" y2="425.2"/>
    <line class="st0" x1="28.35" y1="439.37" x2="377.01" y2="439.37"/>
    <line class="st0" x1="28.35" y1="453.54" x2="377.01" y2="453.54"/>
    <line class="st0" x1="28.35" y1="467.72" x2="377.01" y2="467.72"/>
    <line class="st0" x1="28.35" y1="481.89" x2="377.01" y2="481.89"/>
    <line class="st0" x1="28.35" y1="496.06" x2="377.01" y2="496.06"/>
    <g>
      <line class="st6" x1="177.95" y1="48.75" x2="178.95" y2="48.75"/>
      <line class="st1" x1="180.97" y1="48.75" x2="289.32" y2="48.75"/>
      <line class="st6" x1="290.33" y1="48.75" x2="291.33" y2="48.75"/>
    </g>
    <rect class="st13" x="243.41" y="244.49" width="8.5" height="100.63"/>
    <g>
      <rect class="st13" x="251.3" y="244.49" width="125.79" height="100.63"/>
      <g>
        <polyline class="st0" points="377.09 344.12 377.09 345.12 376.09 345.12"/>
        <line class="st4" x1="374.06" y1="345.12" x2="253.32" y2="345.12"/>
        <polyline class="st0" points="252.3 345.12 251.3 345.12 251.3 344.12"/>
        <line class="st3" x1="251.3" y1="342.11" x2="251.3" y2="246.5"/>
        <polyline class="st0" points="251.3 245.49 251.3 244.49 252.3 244.49"/>
        <line class="st4" x1="254.33" y1="244.49" x2="375.08" y2="244.49"/>
        <polyline class="st0" points="376.09 244.49 377.09 244.49 377.09 245.49"/>
        <line class="st3" x1="377.09" y1="247.5" x2="377.09" y2="343.11"/>
      </g>
    </g>
    <rect class="st7" x="264.59" y="252" width="99.21" height="14.17"/>
    <text class="st9" transform="translate(288 262.5)"><tspan x="0" y="0">Anotaciones:</tspan></text>
  </g>
</svg>