<?xml version="1.0" encoding="UTF-8"?>
<svg id="Capa_1" xmlns="http://www.w3.org/2000/svg" version="1.1" viewBox="0 0 595.28 841.89">
  <!-- Generator: Adobe Illustrator 29.0.0, SVG Export Plug-In . SVG Version: 2.1.0 Build 186)  -->
  <defs>
    <style>
      .st0 {
        fill: #09a0db;
      }

      .st1 {
        fill: #352c81;
      }

      .st2 {
        fill: #e32130;
      }

      .st3 {
        fill: #1d1d1b;
        font-family: DKLemonYellowSun, 'DK Lemon Yellow Sun';
        font-size: 72px;
      }

      .st4 {
        fill: #8a2a82;
      }

      .st5 {
        fill: #e53a8d;
      }

      .st6 {
        fill: #ee7232;
      }

      .st7 {
        fill: #ee7b23;
      }

      .st8 {
        fill: #e32432;
      }

      .st9 {
        fill: #05ab9e;
      }

      .st10 {
        fill: #ee7233;
      }

      .st11 {
        fill: #bccf18;
      }

      .st12 {
        fill: #0c9fdb;
      }
    </style>
  </defs>
  <path class="st0" d="M175.82,99.64c-25.09,8.94-50.11,18.2-75.03,27.75-2.24-8.42-4.89-16.79-7.67-25.11,8.03-1.83,15.61-4.85,23.88-6.01,8.98-1.26,18-1.34,27-.39,1.14.12,1.92-1.04,1.29-2.03-18.45-28.87-40.86-62.86-75.29-73.98-.06-.12-.16-.22-.32-.25-.51-.1-1.01-.21-1.52-.32-.21-.06-.42-.14-.64-.2-.11-.03-.21-.02-.3,0-.03,0-.06-.01-.09-.02-.65-.13-1.34-.31-2.01-.3-.9-2.57-1.8-5.13-2.72-7.68-.09-.26-.26-.41-.46-.48-.37-.31-.94-.39-1.26.09-24.92,38.53-32.74,88.6-25.72,133.46.16,1.01,1.17,1.49,2.04.95,18.37-11.19,37.39-20.82,56.64-30.36,1.55,4.53,3.17,9.04,4.9,13.48-27.4,10.52-54.66,21.39-81.73,32.59-.06-.07-.11-.14-.17-.21-.63-.8-1.8.05-1.28.91.03.05.06.1.09.15-.12.42.14.93.6.96,4.34,7.01,9.86,13.33,15.82,19,5.99,5.71,9.09,6.61,16.74,3.82,18.83-6.89,37.6-13.93,56.4-20.9,18.78-6.96,37.78-13.5,56.41-20.86,5.95-2.35,7.9-6.02,9.31-12.12,2.24-9.77,4.25-19.61,6.31-29.41.03-.14.03-.26.02-.38.94-.81.13-2.64-1.26-2.15ZM65.71,20.47c.39.03.79.03,1.18.04.2,0,.4,0,.6.01,15.65,6.87,29.29,16.11,41.22,28.42,12.82,13.23,23.08,28.65,32.99,44.11-8.31-.69-16.65-.56-24.92.6-8,1.13-17.17,2.69-24.35,6.58-3.48-10.34-7.15-20.64-10.53-30.94-5.34-16.29-10.57-32.64-16.2-48.84ZM37.27,141.95c-3.22-21.99-2.82-44.37,1.32-66.22,4.2-22.18,12.44-42.52,22.79-62.42,5.66,19.07,11.98,37.96,18.14,56.88,4.53,13.93,8.63,28.18,13.33,42.14-19.18,8.39-37.68,18.77-55.57,29.62ZM169.08,126.91c-.78,3.64-1.19,8.82-3.84,11.67-2.67,2.87-8.22,4.01-11.73,5.31-15.77,5.86-31.54,11.73-47.32,17.58-15.44,5.73-30.88,11.45-46.32,17.17-4.03,1.49-8.05,2.99-12.08,4.48-3.36,1.24-6.19,2.76-10.11.43-1.48-.88-3.01-2.6-4.25-3.77-5.8-5.44-10.73-11.51-15.62-17.72,52.21-19.48,104.38-39.18,156.43-59.1-1.75,7.98-3.44,15.96-5.15,23.95Z"/>
  <path class="st2" d="M569.59,104.69c9.96-7.87,9.97-24.29-2.1-30.7-5.94-3.16-13.23-3.15-18.92.54-5.77,3.74-9.04,9.97-11.73,16.15-3.66-7.76-11.55-13.26-20.4-12.92-.85.03-1.69.14-2.51.27-4.02-25.97-27.3-48.33-51.97-55-27.94-7.56-58.65,2.01-76.72,24.71-8.91,11.19-14.32,24.69-15.63,38.88-.14,0-.27.05-.34.22-.54,1.23-.33,2.55.18,3.74-3.09.01-6.09.77-8.73,2.92-4.17,3.4-6.2,9.12-5.14,14.38,2.38,11.87,14.49,15.34,24.55,12.21-3.41,6.34-.68,15.2,6.75,18.27,11.28,4.67,21.39-3.93,24.52-14.36,1.71.61,3.43,1.23,5.14,1.84.73.26,1.24-.22,1.37-.81,9.78.84,15.57-12.19,7.07-18.84,8.7-4.98,10.36-17.2,1.79-23.77-5.38-4.12-10.23-3.58-14.28-.84,5.71-14.35,21.52-30.98,37.72-25.86,8.13,2.57,14.23,9.2,17.89,16.69,1.88,3.85,3.16,7.96,4.2,12.11.46,1.84.85,3.69,1.22,5.55.09.46,1.12,4.74,1.87,7.03-.12-.02-.24-.02-.36.03-.11.04-.22.09-.33.13-.39.16-.82.52-.77,1.01l.05.51c.06.57.34.95.87,1.15.04.02.08.03.13.05-.1.13-.21.25-.31.39-4.12,5.93-2.94,15.04,3.21,18.88-9.14,8.2-13.18,23.23-1.99,31.8,11.52,8.83,23.05-2.49,29.81-11.82,3.99,8.71,13.53,15.56,23.37,12.42,7.79-2.49,12.59-10.74,11.16-18.48,11.7,7.1,28.01,9.41,37.17-3.02,6.6-8.96,2.65-22.55-7.83-25.45ZM370.61,89.26c3.41-35.62,32.09-64.61,68.19-66.3,17.46-.82,34.69,4.71,48.18,15.86,12.86,10.62,19.86,24.14,24.72,39.72-3.35.96-6.38,2.78-8.87,5.18-1.46-14.05-9.59-29.32-19.52-39.04-10.62-10.39-24.12-14.77-38.84-14.07-27.16,1.27-57.42,17-60.1,46.68-3.99,3.11-5.34,9.7-5.7,14.88-2.67-.76-5.46-1.42-8.21-1.55-.08-.29-.14-.57-.18-.86.17-.09.31-.25.33-.49ZM448.26,42.23c-22.01-.11-45.64,13.18-53.25,34.43-1.19-.53-2.46-.9-3.82-1.07-2.14-.27-3.93.05-5.42.79,4.81-28.05,32.97-42.79,59.7-43.55,14.4-.41,27.28,4.34,37.33,14.78,4.54,4.72,8.19,10.27,11.02,16.17,3.31,6.91,4.67,14.16,7.25,21.28.05.13.12.23.2.32-2.43,2.87-4.18,6.34-4.95,10.08-.01.06,0,.11,0,.17-2.12-.79-4.4-1.31-6.69-1.49,1.99-23.57-16.06-51.79-41.36-51.92ZM422.73,82.73c10.29,4.26,9.6,18.21-.26,22.43-.73.31-.61,1.42,0,1.77,10.08,5.78,2.63,20.11-8.01,15.68-.06-.02-.11-.02-.16-.03-1.13-.4-2.25-.81-3.38-1.21-.58-.21-1.28.24-1.42.81-2.1,8.52-9.2,16.77-18.88,14.88-9.04-1.76-13.63-13.55-5.55-19.18.35-.21.7-.43,1.03-.65,1.23-.82.15-2.73-1.17-2-.37.2-.71.43-1.04.66-8.76,5.19-21.55,4.38-25.5-6.6-1.81-5.02-.37-10.67,3.86-14.03,5.1-4.05,11.52-2.2,17.17-.52.74.22,1.41-.38,1.44-1.1.13-3.34.23-6.74,1.57-9.85,2.22-5.13,7.45-7.4,12.66-4.4,5.43,3.12,8.09,9.31,7.63,15.38-.08,1.11,1.68,1.62,2.15.58,1.5-3.35,3.44-7.2,6.05-9.94.11-.05.21-.15.28-.28,2.92-2.92,6.65-4.44,11.51-2.42ZM470.97,72.88c-3.82-8.49-10.39-16.07-19.41-19.12-18.15-6.14-37.04,12.96-41.25,29.56-2.12,1.97-3.96,4.48-5.46,7.1-.87-5.37-3.98-10.57-8.7-13.19,8.41-19.55,29.2-31.98,50.23-32.67,13.06-.43,23.94,6.64,31.31,17.07,6.92,9.79,9.35,20.67,9.69,32.44-3.63.08-7.14,1.11-9.95,3.35.28-2.87-1.21-6.66-1.69-8.96-1.12-5.32-2.53-10.61-4.76-15.58ZM571.6,132.55c-10.29,7.7-23.34,3.55-32.86-3.26-1.09-.78-2.09.68-1.65,1.65,3.59,7.89-2.24,17.39-10.56,18.82-8.84,1.51-16.69-5.37-19.4-13.31-.34-.99-1.58-1.14-2.17-.28-5.54,8.17-15.62,20.64-26.73,13.68-11.87-7.43-6.33-22.93,2.55-30.01.55-.44.42-1.57-.24-1.85-6.53-2.77-7.8-11.49-3.65-16.88,5.02-6.54,14.66-5.96,21.46-3.02.82.35,1.54-.79.72-1.23-.21-.11-.43-.2-.64-.31.09-.12.16-.27.2-.45,1.82-8.33,8.96-15.43,17.79-15.78,8.83-.35,16.57,5.8,19.1,14.07.4,1.32,2.02,1.12,2.49,0,4.56-10.85,12.38-24.4,26.38-19,12.97,5,12.91,22.46,1.22,28.91-1.13.62-.56,2.28.63,2.33,5.87.26,10.44,4.73,11.81,10.32,1.5,6.13-1.62,11.95-6.47,15.58Z"/>
  <g>
    <path class="st8" d="M552.57,599.04c-7.88,1.66-12.64,9.59-11.9,17.22-3.66-1.34-7.98-2.08-10.7,1.34-2.87,3.61-1.02,10.23.76,15.01-10.31-4.1-21.08,7.41-14.19,17.67-1.65-.56-4.51-2.11-6.33-1.37-3.09,1.25-3.83,9.23-4.62,11.89-.02.06-.01.1-.02.15-8.27-12.55-16.63-25.05-24.93-37.59-.43-.64-1.46-.93-2.03-.26-26.41,30.85-52.94,61.63-78.91,92.85-.51.61-.01,1.42.58,1.48.12.35.41.65.86.7,5.1.59,10.21,1.1,15.33,1.56-3.61,32.62-5.29,65.51-6.61,98.3-.03.71.62,1.27,1.29,1.29,35.25,1.06,70.51,1.41,105.77,1.05.73,0,1.26-.59,1.3-1.3,1.84-31.97,2.51-63.99,2.04-96.01,5.1-.08,10.19-.3,15.18-.89,1.18-.14,1.41-1.56.6-2.07.47.06,1.02-.17,1.23-.59,1.3-2.65-.22-4.7-1.38-7.29-1.88-4.17-3.93-8.25-6.09-12.28-3.22-5.99-6.72-11.82-10.34-17.57.57.52,1.68.48,1.84-.46,1.18-6.97,2.09-13.66,4.63-20.31,1.15-3.01,3.34-5.84.15-8.09-1.92-1.35-5.03-1.98-7.62-2.64.21-.25.27-.6.02-.97-6.33-9.26,4.37-21.01,13.79-13.6.84.66,2.59.09,2.08-1.21-.99-2.53-1.87-5.08-2.41-7.76-.71-3.53-.93-3.8,1.63-6.87.68-2.45,1.93-3.27,3.76-2.45,1.53.21,2.97.7,4.33,1.47,1,.44,2.2-.29,1.9-1.46-1.72-6.69,2.05-14.46,9.03-16.26,7.79-2.01,14.45,4.24,15.94,11.41.27,1.28,2.43,1.02,2.31-.31-.81-8.64-9.56-15.6-18.27-13.77ZM477.48,817.82c.16-6.85.79-13.65,2.26-20.36.59-2.68.93-6.37,2.35-8.71,1.72-2.83,5.73-1.5,8.76-1.26,2.87.23,6.13.03,8.93.72,4.59,1.12,3.41,2.2,2.87,5.5-.28,1.69-.58,3.37-.88,5.06-.6,3.37-1.22,6.74-1.87,10.1-.34,1.74-.39,5.81-1.32,7.72-.17.03-.33.09-.47.2l-.27.21c-.23.18-.33.52-.32.85-6.68.02-13.36.02-20.04-.01ZM515.7,817.73c-4.97.05-9.94.08-14.92.1,1.6-2.69,1.53-7.9,1.97-10.3,1.02-5.44,3.38-12.19,2.99-17.72-.17-2.37-1.22-3.38-3.46-3.86-6.44-1.37-13.8-1.1-20.37-1.54-.53-.04-.98.39-1.13.86-3.42,10.56-5.27,21.45-5.16,32.54-21.04-.11-42.09-.48-63.12-1.1,1.33-32.33,3.67-64.59,5.5-96.9,16.71,1.46,33.48,2.29,50.23,2.77,11.02.32,22.05.45,33.08.41,5.39-.02,10.87.07,16.35.04.46,31.58-.19,63.16-1.97,94.69ZM523.25,693.5c2.14,3.67,4.2,7.38,6.15,11.15.9,1.74,1.77,3.49,2.61,5.26.56,1.18,1.11,2.36,1.65,3.55.39,1.24,1.04,2.33,1.92,3.26-.04.01-.08,0-.12.02-.14.06-.28.11-.41.17-.57.24-.94.73-.78,1.38.23.93.43,1.26,1.12,1.54-5.02-.22-10.09-.14-15.16.02,0-.09,0-.17,0-.26-.03-1.67-2.63-1.68-2.6,0,0,.11,0,.23,0,.34-5.45.19-10.9.43-16.31.46-11.03.05-22.05-.08-33.08-.39-22.22-.63-44.36-2.16-66.52-3.79,26.2-29.76,51.9-59.96,77.69-90.09,10.09,15.25,20.21,30.47,30.26,45.75,4.68,7.11,9.29,14.26,13.58,21.61ZM523.89,660c-.72,3.63-2.57,7.21-3.39,10.88-.78,3.5-1.41,7.09-1.38,10.68,0,.11.03.21.06.3-1.34-2.12-2.69-4.24-4.06-6.34-3.02-4.66-6.07-9.3-9.12-13.94.33.11.75,0,.92-.42.7-1.84,1.24-3.84,2.1-5.61.41-1.8,1.39-3.26,2.94-4.37.68.23,1.37.46,2.05.69,4.41.24,10.82,3.41,9.88,8.14Z"/>
    <path class="st8" d="M453.58,751.39c-7.68-6.52-15.92-1.51-20.94,5.54-6.37,8.95-8.45,20.81-5.24,31.33.03.11.09.2.15.28-.43.36-.28,1.26.46,1.29,7.24.3,15,1.56,22.22,1.11,4.49-.28,4.5-4.66,5.68-8.46,3.12-10.03,7.11-23.08-2.33-31.09ZM454.29,755.88c3.25,4.57,3.36,10.56,2.25,16.4-3.4-.4-6.86-.65-10.34-.76,1.19-6.62,2.01-13.29,2.19-19.92,0-.13-.02-.23-.05-.33,2.06.56,4.08,1.99,5.95,4.61ZM446.72,751.01c-.14.15-.26.34-.29.59-.85,6.66-1.63,13.27-2.58,19.86-4.99-.09-9.98.05-14.87.33.58-3.19,1.61-6.31,3.17-9.31,3-5.8,8.78-11.78,14.56-11.47ZM429.41,788.43c.11-.21.16-.71.09-1-1.07-4.72-1.39-9.4-.79-14.4h0c4.96,0,9.88.33,14.79.54-.75,4.98-1.6,10.08-2.67,15.05-3.81-.09-7.62-.07-11.42-.19ZM453.04,783.84c-.18,1.37-.75,2.54-1.71,3.52-.5,1.57-1.54,2.08-3.13,1.54-1.74.37-3.97-.05-5.82-.11,1.26-4.87,2.42-9.85,3.38-14.86,3.43.16,6.86.35,10.32.53-.81,3.35-1.94,6.59-3.04,9.39Z"/>
  </g>
  <text class="st3" transform="translate(192.59 274.28)"><tspan x="0" y="0">REGISTRO</tspan><tspan x="-68.76" y="86.4">DE ASISTENCIAS</tspan><tspan x="-36.04" y="172.8">DE ALUMNOS</tspan><tspan x="-109.47" y="345.6">- nivel inicial -</tspan></text>
  <g>
    <path class="st9" d="M355.46,723.14c7.47-5.96,10.44-17.72,9.1-26.67-1.22-8.13-8.18-20.05-17.39-17.59,1.74-17.06-1.41-37.35-22.49-38.8-17.14-1.18-40.97,15.79-39.82,34.41-12.09-7.38-29.27-2.18-35.71,10.43-5.7,11.15-.59,24.62,10.6,28.99-7.21,3.1-14.51,7.2-18.12,14.34-4.38,8.66-1.16,20.52,3.3,28.56,4.88,8.79,14.13,10.4,23.42,10.45,5.59.03,12.02-.24,16.64-3.27-.95,5.74,2.8,12.83,7.73,15.02,6.73,2.98,14.33-1.2,16.96-7.53,1.66,17.69,2.36,35.41,2.8,53.21.02.9,1.07,1.08,1.55.57,2.01,2.39,5.27,3.47,8.17,1.54,5.35-3.56,2.18-15.15,1.89-20.42-.6-11.21-1.52-22.41-2.74-33.57-.22-2.02-.41-4.1-.6-6.2,13.99,11.63,36.75,10.79,47.48-4.92,8.55-12.52,6.38-39.64-12.78-38.56ZM321.24,812.23c.09,1.95.16,3.9.23,5.85,1.02,3.46-.68,5.17-5.12,5.12-.52-.73-1.36-.82-2.01-.54.48-13.11.06-26.3-.77-39.38-.44-6.89-1.03-13.77-1.78-20.63-.32-2.94-.67-5.88-1.04-8.82-.45-3.56-2.76-7.77,1.2-9.68,2.19-2.34,3.09-1.84,2.71,1.48.3,1.93.59,3.86.87,5.79.54,3.73,1.05,7.46,1.52,11.19.86,6.78,1.59,13.58,2.22,20.38.63,6.81,1.14,13.62,1.54,20.45.17,2.92.32,5.85.45,8.78ZM361.44,764.35c-11.73,10.64-28.47,7.39-40.23-1.11-.26-.19-.52-.23-.77-.21-.66-7.16-1.42-14.47-3.22-21.12-.84-3.09-2.61-5.48-6.22-4.36-7.45,2.29-3.55,14.24-2.91,19.23.39,3.09.75,6.19,1.07,9.28-.09.12-.15.26-.17.44-.52,7.54-9.7,13.91-16.49,9.08-5.68-4.04-4.73-10.37-2.46-15.9.22-.55,0-.95-.39-1.18.14-.78-.93-1.36-1.4-.56-.28.49-.6.93-.93,1.35-.24.24-.45.5-.65.76-4.44,4.72-12.14,4.75-18.31,4.65-9.9-.15-18.31-2.36-22.37-12.3-3.36-8.22-5.74-18.26.19-25.81,4.53-5.77,11.67-8.89,18.33-11.52,1.17-.46,1.56-2.51,0-2.78-13.55-2.38-18.75-17.56-11.15-28.52,7.81-11.25,21.02-11.07,32.32-5.77,1.45.68,2.46-1.16,1.23-2.11-.05-.04-.1-.07-.15-.1-.39-17.17,20.5-33.13,36.78-32.69,20.68.56,22.34,22.16,20.19,37.88-.18,1.34,1.03,2.57,2.36,1.82,2.5.13,4.99.27,7.49.4,1.68.99,2.99,2.31,3.95,3.96,1.2,1.69,2.15,3.53,2.8,5.51,1.27,3.82,1.56,7.8,1.06,11.78-1.04,8.16-5.29,13.06-10.72,18.77-1.04,1.09.26,2.65,1.56,2.02.23-.11.44-.25.66-.37.12.09.26.16.42.18,20.9,1.9,20.95,27.73,8.14,39.34Z"/>
    <path class="st9" d="M351.58,745.85c-2.69-1.97-6.47-1.92-9.31-.33-.1-.04-.21-.06-.34-.06-5.68.05-7.95,6.82-4.93,11.1,3.16,4.48,10.96,6.07,15.11,2.07,3.49-3.37,3.5-9.83-.52-12.78ZM351.15,755.79c-2.12,3.46-7.15,3.22-10.24,1.28-1.71-1.07-3.23-2.87-3.25-4.99-.01-1.54.7-3.04,1.85-4-.25.38-.47.78-.64,1.22-.51,1.29,1.47,1.98,2.15.91,1.66-2.6,4.75-4.18,7.82-2.99,3.41,1.32,4.07,5.68,2.31,8.57Z"/>
    <path class="st9" d="M333.56,709.84c-3.08-1.41-7.95.26-9.02,3.54-1.86,2.15-2.18,5.79-.72,8.18,2.58,4.24,9.12,3.65,12.1.23,3.1-3.56,2.02-9.94-2.36-11.95ZM333.66,720.67c-2.22,2.11-6.59,2.33-8.25-.6-.7-1.24-.74-2.59-.35-3.8.4.04.86-.19,1.02-.6.4-.99,1.04-1.95,1.84-2.69.04-.02.07-.05.11-.06.15-.07.23-.16.28-.27,1.32-1.02,3-1.4,4.7-.33,2.78,1.75,2.93,6.17.64,8.35Z"/>
    <path class="st9" d="M351.72,690.96c-2.88-1.36-8.22-.8-8.94,2.99-.04.18-.02.34.02.49-1.8,1.51-2.35,4.63-.72,6.8,2.9,3.86,8.49,3.18,11.36-.28,2.66-3.21,2.29-8.11-1.71-10ZM352.79,697.29c-.52,2.32-2.77,4.29-5.15,4.44-1.57.1-3.09-.59-4.04-1.84-1.5-1.96-.19-5.35,2.69-4.75.88.18,1.22-1.05.37-1.34-.38-.13-.75-.19-1.1-.22,1.04-.92,2.24-1.33,3.89-1.02,2.3.43,3.87,2.36,3.34,4.74Z"/>
    <path class="st9" d="M329.12,669.19c-5.18-5.69-13.32-.14-16.51,4.93-.23.37-.2.72-.03,1.01-1.19,1.96-1.56,4.49-.72,7.12,2.06,6.42,10.21,7.99,15.38,4.26,5.23-3.78,6.28-12.48,1.88-17.32ZM327.1,683.28c-3.11,3.63-9.77,4.03-12.5-.3-1.66-2.64-1.39-5.82.2-8.01.51-.47,1.05-1.01,1.62-1.56,1.14-.77,2.57-1.2,4.22-1.06.48.04.6-.77.11-.85-.74-.11-1.45-.12-2.13-.06,2.24-1.8,4.77-3.03,7.4-1.55,4.48,2.52,4,9.98,1.08,13.4Z"/>
    <path class="st9" d="M315.87,649.65c-3.86-2.27-9.68,1.54-11.28,5.15-.22.49.08,1.15.55,1.28-.96,1.86-.59,4.4.87,6.06,3.04,3.45,8.16,1.37,10.57-1.71,2.36-3.02,3.12-8.53-.71-10.78ZM315.51,657.94c-1.21,2.35-4.62,5.04-7.34,3.38-1.97-1.2-2.64-4.82-.39-6.03.5-.27.36-.82,0-1.06,1.28-1.22,2.56-2.46,4.36-2.9,4.16-1.02,4.8,3.84,3.37,6.62Z"/>
    <path class="st9" d="M301.12,676.78c-2.5-1.99-6.98-1.72-9.2.66-3,1.4-4.18,5.43-2.33,8.66,2.31,4.03,8.08,4.88,11.62,1.97,3.42-2.81,3.38-8.53-.1-11.3ZM300.17,686c-1.93,2.02-5.61,2.16-7.71.35-1.71-1.47-2.19-3.91-1.47-5.76.36.32,1,.31,1.37-.18.73-.96,1.68-1.8,2.74-2.31.16-.01.28-.07.35-.17,1.19-.47,2.5-.48,3.82.3,2.61,1.55,2.94,5.64.9,7.78Z"/>
    <path class="st9" d="M297.66,705.11c-4.8-3.7-12.24-2.01-15.67,2.76-.38.53,0,1.21.54,1.43-.88,2.62-.11,5.84,2.04,8.11,3.59,3.79,10.07,4.07,14.04.68,4.2-3.59,3.21-9.78-.95-12.98ZM297.54,715.73c-1.95,2.23-5.58,2.89-8.33,2.06-4.14-1.25-6.66-6.47-4.21-9.77,2.59-1.8,5.38-3.21,8.72-2.22,4.06,1.21,6.94,6.36,3.82,9.93Z"/>
    <path class="st9" d="M270.71,688c-3.49-2.16-8.81-1.28-10.91,2.39-.51.9.77,1.98,1.48,1.14.55-.65,1.2-1.19,1.91-1.62-2.51,2.06-2.53,6.02-.65,8.62,2.41,3.33,6.97,2.77,9.41-.22,2.57-3.16,2.42-8.04-1.24-10.31ZM270.82,696.42c-1.58,2.58-5.06,3.59-7.05.87-1.54-2.1-1.6-5.45.71-7.01.41-.28.26-.81-.08-.96,1.3-.47,2.73-.55,4.15-.06,3.12,1.08,3.92,4.46,2.27,7.16Z"/>
    <path class="st9" d="M271.47,728.97c-4.35-.84-10.71,1.77-10.71,6.88,0,.12.03.24.07.34-.3,3.14,1.22,6.5,3.82,8.41,4.58,3.38,10.36.66,12.38-4.23,1.98-4.8-.21-10.36-5.56-11.39ZM274.99,739.01c-1.22,3.63-5.13,6.28-8.77,4.1-2.44-1.46-3.7-4.21-3.62-6.93,1.55-3.03,4.05-5.18,7.7-4.86,3.94.35,5.9,4.04,4.68,7.69Z"/>
  </g>
  <g>
    <path class="st11" d="M578.58,245.33c-4.3-5.14-11.09-7.05-17.56-5.95.15-2.61.1-5.23-.18-7.83-1.01-9.16-5.63-20.92-12.7-30.15,4.66-5.74,11.18-9,18.6-9.8,1.1-.12,1.16-1.8,0-1.77-7.82.24-14.89,4.27-19.48,10.46-7.07-8.77-16.4-14.96-26.94-13.84.77-8.31,5.05-14.94,12.66-19.02,1.21-.65.15-2.3-1.05-1.79-8.12,3.46-13.6,12.28-13.33,21.07-.3.05-.59.09-.89.15-.69.15-.97.67-.95,1.2-9.46-.31-19.01,1.97-27.4,6.4,0-.03,0-.05-.01-.08-2.3-5.56-3.08-11.21-2.68-17.2.08-1.24-1.76-1.18-1.9,0-.73,6.16.45,12.24,3.03,17.85.04.08.1.14.15.2-7.28,4.13-13.58,9.9-18.01,17.09-2.18,3.53-3.83,7.38-4.96,11.39-5.29-1.51-9.47-5.15-12.1-10.22-.39-.76-1.73-.22-1.4.59,2.27,5.66,7.3,9.73,13.13,11.07-2.99,12-1.37,25.25,5.14,35.74-7.3,2.68-14.16,2.78-21.77.39-.86-.27-1.48,1.1-.63,1.49,7.28,3.36,16.09,3.06,23.14-.74.76,1.14,1.58,2.25,2.46,3.32,5.8,7,14.03,11.93,23.07,14.73-5.31,7.83-12.53,13.12-21.6,16.28-.87.3-.53,1.59.38,1.38,9.57-2.17,17.91-8.69,22.71-17.2,7.51,2.11,15.52,2.75,23.13,1.89,1.06,5.66.49,11.14-1.75,16.54-.34.81,1.07,1.41,1.43.6,2.46-5.52,3.04-11.47,1.63-17.29,4.09-.56,8.05-1.57,11.73-3.02,5.95-2.35,11.08-6.06,15.23-10.64,5.7,4.45,8.92,11.06,9.15,18.3.04,1.09,1.7,1.1,1.7,0,.01-7.83-3.64-14.85-9.82-19.52,6.22-7.38,10.07-16.8,10.95-26.5,6.28-.98,11.97,1.32,16.53,5.6.77.72,1.79-.35,1.14-1.14ZM535.21,275.68c-10.85,5.13-24.58,5.71-36.85,2.26-.17-.17-.42-.26-.66-.19-7.62-2.24-14.64-6.05-20.02-11.31-10.68-10.44-14.01-26.62-10.38-40.89.39.03.78.06,1.17.07.82.02.79-1.17,0-1.25-.27-.03-.54-.07-.8-.11.77-2.68,1.76-5.3,3.03-7.78,9.46-18.46,30.36-27.15,50.27-26.69.53.01.74-.41.67-.79,18.55-1,33.16,23.84,36.05,39.4,3.4,18.32-5.13,39.09-22.47,47.29Z"/>
    <path class="st11" d="M498.5,215.89c.05-.05.09-.11.14-.16.56-.63-.3-1.49-.92-.92-.61.55-1.22,1.23-1.68,1.99-.5.52-.79,1.19-.73,1.88-.11.79.03,1.6.57,2.37,1.24,1.74,4.02,2.14,4.87-.15.69-1.86.05-4.77-2.25-5.01ZM498.64,220.46c-.48.29-.97-.16-1.28-.66.19-.23.29-.54.17-.86-.21-.56.52-1.03.98-.71.47.33.62,1.93.13,2.23Z"/>
    <path class="st11" d="M533.38,216.9c-.19-1.26-1.2-2.21-2.31-2.54-.13-.24-.37-.42-.7-.42-2.63.04-4.3,3.6-2.18,5.43,1.97,1.71,5.63.37,5.19-2.47Z"/>
    <path class="st11" d="M543.2,235.39c-6,11.52-14.76,20.87-28.51,22.15-12.95,1.2-25.44-5.67-32.34-16.47-.5-.79-1.72-.09-1.26.74,6.83,12.09,20.46,19.58,34.41,18.07,12.68-1.37,26.36-10.85,29.64-23.67.29-1.14-1.37-1.92-1.95-.82Z"/>
  </g>
  <g>
    <path class="st12" d="M46.54,814.69c5.08-12.03,14.27-21.47,26.09-26.89-7.53-10.3-11.13-22.64-10.34-35.41.06-.94.96-1.43,1.8-1.04,8.7,4.15,16.5,9.85,22.91,17.07,2.91,3.28,5.54,6.82,7.76,10.6.15.26.34.55.54.85-2.53-26.76.52-54.09,18.58-75.39,7.08-8.35,16.37-15.6,26.69-20.59-5.74-12.78-12.08-25.17-19.95-36.8-4.05-5.99-8.48-13.38-15.09-16.85-3.52-1.85-7.67-2.81-11.51-1.35-4.82,1.83-7.37,7.05-5.23,11.97.44,1.02-.91,1.87-1.53.88-3.01-4.82-1.02-11.06,3.75-14.01,5.69-3.52,13.08-1.57,18.1,2.21,7.86,5.92,13.33,15.78,18.28,24.08,1.96,3.28,3.82,6.62,5.6,10-.8-5.11-.41-10.32,1.74-15.12,1.99-4.46,5.99-8.49,11.22-8.02,4.23.37,7.59,3.17,7.74,7.46.03.84-1.28,1.01-1.47.18-1.78-7.62-10.49-6.19-14.13-1.28-2.78,3.76-3.6,8.84-3.45,13.43.28,8.17,3.64,15.56,8.29,22.13,13.63-6.04,28.84-8.09,43.06-3.51,21.29,6.85,33.37,27.89,33.98,49.28.46.04.86.48.53.98-.16.24-.34.47-.5.71,0,3.1-.24,6.2-.73,9.26-4.72,29.45-27.72,51.27-53.11,64.55-14.7,7.69-30.93,13.93-47.69,14.42-12.88.38-27.45-3.61-34.4-15.12-.04.05-.07.11-.13.16-10.21,8.77-22.89,13.34-36.35,12.99-.99-.03-1.4-1-1.05-1.82ZM82.24,801.84c.26-.23.56-.3.84-.29-.04-.09-.09-.17-.14-.26-.42-.87.82-1.61,1.31-.76,15.23,26.23,54.18,14.24,75.5,4.04,24.34-11.65,47.17-30.17,55.18-56.92,1.36-4.54,2.17-9.28,2.43-14.05-6.77,7.53-17.04,12.6-27.19,11.41-1.06-.12-1.09-1.61,0-1.68,10.9-.61,20.22-3.99,27.27-12.15.3-19.66-8.78-39.42-27.72-47.89-24.17-10.81-53.35,1.22-70.64,19.12-21.75,22.53-24.3,53.49-20.64,83.13.19,1.52-2.07,1.58-2.47.22-.11-.01-.21-.05-.31-.11-.15-.09-.3-.19-.45-.28-.33-.2-.47-.64-.27-.98.06-.11.13-.22.19-.33.1-.18.27-.27.45-.29-1.1-1.33-3.12-4.25-3.23-4.42-.98-1.55-2.02-3.08-3.11-4.55-2.31-3.11-4.9-6.02-7.71-8.69-5.03-4.8-10.74-8.69-16.92-11.82-.32,12.16,3.46,23.69,10.93,33.38.37.48.1,1.43-.45,1.66-11.47,4.91-20.37,13.53-25.62,24.74,12.1-.1,23.52-4.32,32.76-12.24Z"/>
    <path class="st12" d="M181.7,703.38c3.12-1.94,8.18.23,7.85,4.18-.06.75-1.18.76-1.18,0,0-3.22-4.7-4.22-6.53-1.93-1.95,2.45-.59,5.04.45,7.46.36.85-.54,1.6-1.28.99-3.04-2.49-2.63-8.64.69-10.71Z"/>
  </g>
  <path class="st1" d="M114.14,285.2c12.4-4.95,22.12-15.37,26.86-27.69,4.04,7.06,16.09,24.9,25.64,17.72,7.56-5.68,1.62-13.58-4.08-18.32,4.35-.62,8.61-2.51,8.89-7.49.36-6.53-5.74-9.23-11.2-10.45,3.28-2.72,7.46-4.99,7.95-9.54.28-2.62-.61-5.27-3.26-6.22-3.82-1.35-9.47,2.38-12.37,4.39-3.98,2.77-7.15,6.25-9.56,10.34-3.92-32.56-59.38-37.16-77.07-13.3-2.45,3.31-4.14,6.95-5.16,10.76-8.16-9.28-21.88-20.81-34.19-12.15-8.38,5.89-4.07,14.55,2.92,18.5-4.15,1.16-7.66,3.81-7.29,8.81.42,5.62,6.2,8.31,11.49,8.64-5.85,4.42-5.78,14.11,2.36,17.14,9.44,3.52,21.24-6.86,26.99-14.57,1.63,3.91,3.77,7.59,6.33,10.83,10.98,13.89,28.11,19.24,44.74,12.6ZM156.66,228.37c1.41-.81,2.89-1.47,4.43-2,4.69,3.21,4.63,5.91-.16,8.12-1.76,1.48-3.39,2.54-4.92,4.34-.66.77-.55,2.34.67,2.53,1.6.21,3.18.51,4.74.89,6.09,1.09,7.63,3.61,4.64,7.54-1.88,4.58-3.45,4.32-7.95,4.24-1.61-.03-2.06,2.12-.79,2.92,3.44,2.17,7.85,4.66,9.04,8.9l.12,3.91c-3.8,4.67-7.56,4.79-11.28.36-4.88-4-8.53-9.41-11.74-14.76-.36-.6-.92-.81-1.45-.76,1.39-4.42,2.14-9.05,2.15-13.73,0-.18-.03-.35-.07-.5,3.26-4.95,7.27-9.14,12.56-12.01ZM141.36,239.69c-.31.27-.52.66-.54,1.19-.64,18.71-12.48,36.31-30.68,42.12-.93.3-1.86.54-2.79.75,8.83-7.66,14.57-20.76,17.91-31.63,3.03-9.84,6.01-22.75,1.44-32.58,7.33,4.44,12.9,11.1,14.64,20.14ZM124.49,218.29c-.06.2-.07.42.03.65,4.66,10.85.76,25.11-3.16,35.72-4.01,10.87-10.81,18.75-16.77,28.39-.29.47-.23.92,0,1.24-7.27,1.05-14.25-.39-20.34-3.62.12-.04.24-.07.36-.15,13.75-9.36,22.38-26.33,24.77-42.48,1.14-7.66,1.26-16.09-.93-23.6-.11-.38-.26-.79-.45-1.2,5.77.76,11.45,2.43,16.47,5.05ZM49.29,270.52c-2.24,1.53-4.82,3.14-7.55,3.51-10.1,1.38-13.7-11.26-4.19-15.04.13-.02.26-.04.38-.06,1-.21.98-1.78,0-2-4.46-.98-10.85,0-12.87-5.36-1.93-5.15,2.89-7.57,7.41-8.5,1.41.47,2.86.75,4.3.78.99.02,1.29-1.21.69-1.79.11-.42-.12-.95-.7-1-.75-.06-1.54-.08-2.36-.05-3.65-1.2-6.57-2.78-8.19-6.81-2.15-2.74-1.43-4.96,2.15-6.65,1.03-2.63,2.78-3.95,5.23-3.96,2.57-.58,5.28-.3,7.8.4,7.75,2.15,13.4,8.14,18.81,13.78-1.35,6.96-.57,14.35,1.78,21.19-4.29,3.81-7.9,8.27-12.7,11.55ZM63.99,253.79c-3.84-16.29,3.66-30.12,16.99-36.76.06.21.2.39.44.45,2.75.67,2.47,12.44,2.45,14.8-.03,4.56-.55,9.13-1.57,13.58-1.95,8.56-6.17,15.45-10.08,23.14-.59,1.17.92,2.51,1.9,1.46,7.42-8.01,10.99-20.51,11.99-31.16.38-4.03,1.73-20.89-3.71-22.94,3.03-1.35,6.34-2.35,9.87-2.93,4.05-.67,8.35-.84,12.67-.51,1.61,2.38,2.51,15.73,2.43,17.44-.27,6.17-1.48,12.28-3.48,18.12-4.18,12.19-11.66,21.24-20.97,29.85-.44.4-.48.95-.31,1.42-9.11-5.45-16.02-14.95-18.62-25.95Z"/>
  <path class="st5" d="M23.52,508.75c10.87-10.11,28.07-8.4,39.63-.48,11.15,7.64,18.23,20.96,16.7,34.58-1.69,15.11-12.7,28.39-27.36,32.45-.22.06-.42.01-.59-.09,2.62,1.41,5.25,2.75,7.82,4.07.82.42,1.03,1.17.6,1.97-1.18,2.22-2.69,4.02-4.5,5.43,9.14,2.88,15.54,12.36,14.93,21.97-.44,6.87-4.66,12.45-7.58,18.42-3.35,6.85-5.59,14.91-4.18,22.55,3.01,16.23,20.86,15.07,30.63,24.83,7.13,7.12,8.09,19.76,1.44,27.5-.94,1.1-2.67-.07-1.86-1.32,3.67-5.68,4.98-12.45,2.27-18.87-2.72-6.44-8.74-9.45-14.8-12.06-8.9-3.83-17.35-7.92-19.89-18.13-2.62-10.54,1.55-21.05,6.58-30.13,3.65-6.6,6.5-13.23,3.79-20.77-2.21-6.15-7.05-10.58-13.08-12.82-1.54.91-3.26,1.58-5.16,2.02-.9.21-1.48-.62-1.5-1.4-.09-4.16.24-8.16.98-12.23-11.44-6.31-22.29-13.8-29.03-25.3-7.75-13.21-7.67-31.24,4.12-42.21ZM50.01,586.91c3.17-1.09,5.62-3.08,7.44-5.89-2.22-1.13-4.45-2.29-6.67-3.48-.5,3.12-.76,6.21-.77,9.37ZM18.62,543.38c5.68,15.23,19.38,24.37,33.22,31.8-.51-.37-.62-1.35.11-1.6,14.65-4.99,25.73-19,25.58-34.79-.16-16.56-13.74-31.6-29.99-34.1-22.34-3.45-36.39,18.64-28.91,38.69Z"/>
  <g>
    <path class="st1" d="M361.29,500.38c-3.17-6.85-10.41-10.29-17.8-9.4-6.14.74-13.57,4.31-16.63,10.05.04-.32.1-.64.13-.96.89-9.98-5.8-20.04-15.25-23.27-11.88-4.06-25.48,2.72-34.08,10.73-9.39,8.75-9.5,20.84-3.31,31.5-7.5,3.22-15.13,5.95-22.99,8.16-.73.21-.96.98-.66,1.62,1.96,4.12,7.82,2.87,11.47,2.77,7.64-.22,15.31-.45,22.94-.95,6.88,4.66,15.32,6.82,23.88,5.53,6.03-.91,13.42-3.63,17.03-8.89.39-.58.71-1.19.99-1.83.16.24.41.43.76.47,15.42,1.84,43.21-4.55,33.51-25.53ZM269.75,529.33c-3.07.02-12.61,1.63-16.08-.53,7.44-2.18,14.71-4.81,21.8-7.98,2.16,3.26,4.79,6.12,7.8,8.46-4.51-.04-9.02.03-13.52.06ZM326.1,520.73c-.5,7.28-7.98,11.1-14.25,12.73-8.34,2.17-17.09.69-24.27-3.7-.05-.22-.23-.41-.54-.42-.04,0-.09,0-.13,0-1.89-1.22-3.67-2.63-5.29-4.25-7.86-7.86-13.31-21.31-6.5-31.44,5.51-8.2,16.71-14.63,26.43-15.73,10.8-1.23,20.85,5.67,23.1,16.46,2.21,10.58-5.41,21.35-15.82,23.66-6.33,1.41-14.01-.57-16.26-7.38-1.9-5.76.49-13.16,5.63-16.47,4.96-3.2,13.46-1.83,15.05,4.61.67,2.72-.19,6.23-2.36,8.1-4.29,3.34-6.76,1.72-7.4-4.85.97-1.39,2.22-2.35,3.75-2.89.59-.26.17-1.23-.44-1.04-7.76,2.44-7.09,14.24,1.87,12.11,8.14-1.94,8.71-13.44,2.38-17.72-8.58-5.8-18.68,1.04-20.71,10.08-2.51,11.19,6.38,19.21,17.27,17.7,7.83-1.09,14.76-6.75,17.8-14,.34,4.76,1,9.72.68,14.43ZM327.78,523.92c-.08,0-.15.03-.22.04,1.78-5.86-.06-13.48-.49-19.1,1.81-7.31,11.46-11.93,18.48-11.86,8.48.08,14.78,6.38,15.49,14.78,1.31,15.57-22.98,16.07-33.27,16.14Z"/>
    <path class="st1" d="M347.52,500.95c-2.64-.57-4.89,2.12-4.3,4.62.19.83,1.36.46,1.25-.34-.22-1.51,1.47-3.21,2.98-2.46.55.27.96.82,1.13,1.4.19.64-.05,1.18-.03,1.82.02.71.85,1.03,1.37.57,1.96-1.76-.37-5.17-2.4-5.61Z"/>
  </g>
  <g>
    <path class="st4" d="M431.33,455.11c12.34-8.66,38.27-1.78,41.94,13.78,18.01-3.42,37.95.32,54.53,7.94.28.13.47.3.62.49,5.93-15.91,31.45-14.32,42.82-5.66,14.94,11.38,6.59,36.73-9.61,42.8-.04.01-.07,0-.1.02,1.2,5.02,1.64,10.2,1.18,15.34-2.34,25.84-23.57,45.77-48.59,50.78-26.78,5.36-56.41-.38-74.01-22.32-13.3-16.59-16.28-39.64-7.58-58.57-13.74-10.76-16.54-33.83-1.21-44.59ZM431.02,459.27c-12.64,11.71-6.05,26.71,2.79,37.85,1.52-2.88,3.32-5.65,5.41-8.27.82-1.02,1.67-1.99,2.53-2.93-5.25-2.39-5.13-10.74-1.05-14.35,5.41-4.77,12.75-2.46,16.85,2.51,4.36-2.15,8.96-3.73,13.72-4.79-4.3-14.45-29.89-19.64-40.26-10.03ZM443.9,483.71c3.67-3.56,7.71-6.48,12.02-8.79-3.24-3.36-8.17-5.02-12.46-2.2-4.81,3.15-3.47,8.26.45,10.99ZM566.31,472.13c-11.37-6.19-29.41-5.74-35.54,7.11,4.44,1.55,8.54,3.82,12.24,6.62,3.69-4.11,11.63-3.93,15.47-.13,4.56,4.52,3.28,12.61-1.83,16.08,1.91,3.5,3.43,7.22,4.48,11.07,14.62-7.73,22.09-31.54,5.17-40.74ZM545.32,487.73c4.06,3.5,7.53,7.67,10.29,12.28,3.53-3.04,4.55-8.95.97-12.41-3.48-3.36-7.86-2.27-11.26.12ZM438.11,548.98c24.87,43.13,102.91,40.03,119.1-9.02,6.21-18.8-.5-38.24-14.57-50.45-.55-.03-1.09-.4-1.12-.95-4.75-3.89-10.28-6.97-16.4-8.97-.2-.06-.33-.17-.44-.3-24.36-10.29-54.36-13.21-75.92,4.94-18.78,15.8-22.7,43.84-10.65,64.74Z"/>
    <path class="st4" d="M466.16,552.18c.16-1.36,2.25-1.92,2.61-.35,1.09,4.74,5.08,8.42,10.32,7.2,3.93-.92,6.85-3.99,8.75-7.4-2.16-1.15-3.91-3-4.91-5.4-.47-1.13.84-1.92,1.79-1.77,4.22.69,8.3,1.78,12.29,3.29,1.04.39,1.32,1.48.62,2.33-1.89,2.29-4.47,3.67-7.37,3.85-.88,2.7-.99,5.55.71,8.12,2.83,4.29,9.64,3.89,10.24-1.8.16-1.5,2.7-2.19,2.95-.39.97,6.94-7.39,10.82-12.89,7.1-3.61-2.44-4.84-6.26-4.37-10.04-2.36,2.97-5.64,5.1-9.71,5.23-5.36.17-11.69-4.22-11.02-9.98ZM492.67,549.92c.43,0,.75.16.99.38.22-.17.43-.35.63-.54-.62-.21-1.25-.38-1.87-.57,0,.12-.03.24-.1.36-.06.1-.12.21-.18.31.18.01.36.05.54.05ZM490.9,548.73c-1.14-.31-2.3-.6-3.46-.85.78.73,1.73,1.26,2.76,1.6.22-.26.46-.51.7-.76Z"/>
    <path class="st4" d="M535.94,543.64c1.88-.43,4.75.75,4.08,3.08-.07.25-.26.47-.49.62.07.45.02.91-.2,1.27-1.18,1.94-4.07,1.17-5.21-.35-1.32-1.76-.28-4.13,1.82-4.62ZM537.05,547.59c.16.02.53-.05.53-.05.03-.05.02-.12.01-.18-.61.17-1.2-.47-1.04-1.12-.25.02-.51.11-.55.34-.08.48.62.95,1.05,1.01Z"/>
    <path class="st4" d="M446.84,527.11c.86-1.28,2.59-1.06,3.96-1.17.52-.04,1.03.31,1.29.73.51.84.66,1.85.41,2.79-.27.99-1.04,2.1-2.17,2.15-.52.02-.91-.17-1.16-.47-.86.15-1.77-.12-2.36-1.04-.57-.89-.55-2.12.04-3Z"/>
  </g>
  <g>
    <path class="st6" d="M556.55,442.04c.42-3.53-3.5-6.33-6.67-5.95-.81.1-1.56.38-2.23.76-.11-.16-.23-.3-.33-.46-1-1.63-1.76-3.39-2.33-5.23,4.7-.94,9.18-2.89,13.07-6.09,11.25-9.28,9.28-24.28,2.19-35.09,6.72,1.6,14.47-4.04,13.59-11.57-.59-5.01-5.6-7.97-9.79-6.5.96-3.31-.16-7.46-2.48-9.59-3-2.75-7.46-2.74-10.71-.53,1.31-5.4.84-12.17-5.9-11.76-8.34.5-15.07,9.8-19.46,16.31-3.62-.77-7.26-1.11-10.81-.85,12.18-15.1-3.71-34.04-20.14-28.53-.02-.08-.05-.15-.1-.23-2.25-3.32-5.11-6.27-7.71-9.3-.57-.67-1.92-.45-1.96.6-.15,3.38.28,7.5-.46,10.79-.55,2.44-1.42,2.57-3.62,3.04-1.89.4-3.78.81-5.66,1.21-.98.21-1.29,1.45-.54,2.09,2.37,2.01,4.65,4.12,7.05,6.09-2.24,10.66,4.29,22.99,16.62,24.59.19.02.36,0,.5-.05-2.71,4.34-4.18,9.65-4.06,15.03.34,15.39,10.64,29.06,23.46,35.91,2.43,1.3,5.05,2.37,7.77,3.21-.19,1.98,0,4.04.53,5.96-1.51.46-2.9,1.43-3.83,2.99-.37.63.45,1.31.89.69.83-1.16,2.04-2.02,3.37-2.37.74,1.9,1.86,3.59,3.45,4.78.68.51,1.46-.39,1.02-1.07-.81-1.27-1.51-2.5-2.07-3.74.01,0,.03,0,.04,0,2.25.58,3.39,2.59,3.91,4.77.16.68,1.24.78,1.3-.05.26-4.03-2.71-6.25-5.89-6.32-.58-1.63-.91-3.31-.91-5.13,5.12,1.34,10.55,1.76,15.77.97.57,2.17,1.48,4.55,2.74,6.6-1.36,1.45-2.12,3.5-1.89,5.55.1.89,1.37.65,1.33-.23-.07-1.45.52-2.9,1.51-3.95.91,1.19,1.96,2.2,3.17,2.87.65.36,1.15-.59.81-1.11-.69-1.05-1.54-1.96-2.35-2.91.47-.2.98-.34,1.51-.35,2.73-.06,3.97,2.11,4.9,4.35.28.68,1.31.51,1.4-.23ZM537.22,355.57c3.09-2.3,7.67-4.84,11.19-2.02,3.19,2.56.34,8.59-.74,11.56-.44,1.2,1.21,1.82,1.76.7.2-.41.4-.86.58-1.34,2.76-2.52,7.09-3.26,10-.73,3.35,2.91,2.09,7.03.55,10.54-.36.81.64,1.5,1.29.99.33-.26.61-.55.87-.86,4.08-2.74,9.45.61,8.87,5.88-.7,6.48-6.79,7.6-11.91,7.32-.36-.02-.64.15-.84.38-7.2-9.68-19.31-18.21-31.85-21.33,3.09-3.99,6.18-8.08,10.23-11.1ZM482.01,349.46c-1.45-1.51-2.93-2.97-4.41-4.44,2.88-.36,6.64-.79,8.12-2.64,1.07-1.33.8-3.48.86-5.01.08-2.11.17-4.23.25-6.34,1.9,2.28,3.82,4.56,5.95,6.6-.1.05-.21.08-.31.13-5.59,2.59-8.98,6.9-10.47,11.71ZM498.42,373.53c-16.15-2.52-21.45-25.93-5.06-33.62,15.52-7.28,30.34,10.48,20.13,24.93-.19.26-.17.53-.05.73-.13.01-.27.01-.4.03-.35.04-.55.23-.67.46-5.48,1.01-9.93,4.25-13.01,8.65.01-.53-.28-1.07-.93-1.18ZM543.96,428.43c-5.36,1.08-10.84.72-16.07-.71.04-.24.06-.48.11-.73.19-.89-1.22-1.23-1.51-.36-.07.21-.12.42-.18.63-9.06-2.89-17.22-9.02-22.48-16.76-9.02-13.26-10.37-39.19,8.94-43.14.08.05.17.09.27.11,8.19,1.61,16.02,2.45,23.67,6.14,7.42,3.57,14.3,8.86,19.41,15.44,4.78,6.15,8.61,14.44,7.01,22.64-1.86,9.53-10.51,15.01-19.19,16.75Z"/>
    <path class="st6" d="M521.97,406.14c-.09-.85-1.37-.8-1.46.05-.69,6.18-7.78,5.03-10.63,1.4-1.67-2.12-2.46-4.78-2.54-7.51-.14-5.07,2.18-9.59,6.13-12.65.57-.44.01-1.49-.63-1.11-6.82,4.05-9.38,13.62-5.76,20.6,1.81,3.5,5.59,6.68,9.73,5.93,3.24-.59,5.53-3.38,5.16-6.72Z"/>
    <path class="st6" d="M538.01,406.14c-.38-.88-1.92-.51-1.67.51.88,3.69-.94,8.28-4.89,9.25-4.34,1.06-8.1-3.29-7.71-7.51.09-1.04-1.41-1.19-1.57-.16-.85,5.38,3.88,10.72,9.28,9.81,5.12-.86,8.66-7.08,6.56-11.91Z"/>
    <path class="st6" d="M550.57,404.94c-.34-1.85-1.74-4.55-3.87-4.48-.56.02-1.1.67-.66,1.2.87,1.04,1.95,1.63,2.4,3.03.48,1.51.3,3.4-.87,4.58-2.14,2.16-5.96,1.07-7.02-1.58-.42-1.05-1.99-.33-1.59.72,1.44,3.84,6.8,5.27,9.89,2.35,1.56-1.48,2.11-3.75,1.73-5.82Z"/>
    <path class="st6" d="M500.68,343.2c-2.64-1.6-6.15-.16-7.38,2.68-.24.55.6,1.06.91.52,1.08-1.93,3.65-3.03,5.58-1.81,1.87,1.18,1.92,3.98.82,5.77-.5.81.48,1.54,1.12.86,2.18-2.33,1.6-6.41-1.04-8.02Z"/>
  </g>
  <g>
    <path class="st9" d="M332.95,161.58c-1.93-.6-3.92-1.03-5.93-1.35,7.15-14.64,7.43-31.99-1.24-46.11-.55-.9-1.77-1.06-2.54-.33-4.7,4.5-7.71,9.67-9.24,15.88-19-4.63-38.56-6.57-58.11-5.26-3.95.27-7.89.66-11.82,1.18-2.82.37-5.65.79-8.45,1.29-2.16.38-6.49,2.28-8.37,1.73-2.88-.85-4.02-4.16-6.03-6.4-2.64-2.94-5.76-5.19-9.21-7.1-1.85-1.02-3.5,1.79-1.66,2.83,5.97,3.37,10.06,7.7,13.11,13.84.35.69,1.22.94,1.92.78,29.68-6.57,59.84-6.61,89.4.7.82.2,1.87-.26,2.04-1.16,1.11-5.69,3.4-10.33,7.2-14.5,7.19,13.12,6.23,29.01-.61,42.16-3.12-.28-6.27-.31-9.34-.18-1.2.05-1.21,1.9,0,1.87,2.79-.07,5.51.09,8.21.38-1.94,3.33-4.23,6.33-6.82,9-2.09-.59-4.18-1.24-6.25-2.05-.99-.38-1.37,1.17-.43,1.57,1.65.69,3.36,1.38,5.1,2.03-2.13,2-4.42,3.8-6.85,5.4-1.28-.56-2.55-1.11-3.81-1.68-.97-.44-1.83.97-.85,1.45.93.45,1.85.92,2.78,1.39-7.95,4.73-17.19,7.41-26.66,8.02-11.22.72-23.22-1.37-33.86-6.09,1.2-.81,2.4-1.61,3.58-2.45.81-.58.08-1.89-.79-1.35-1.56.96-3.08,1.96-4.6,2.96-3.31-1.59-6.48-3.43-9.42-5.54,1.15-.31,2.3-.63,3.44-.99.9-.29.52-1.56-.39-1.4-1.63.28-3.25.64-4.87,1.01-1.21-.94-2.39-1.91-3.51-2.95-1.96-1.81-3.7-3.75-5.26-5.77,4.3-.15,8.64-.46,12.82-1,1.06-.14,1.14-1.7,0-1.71-4.7-.05-9.57.19-14.34.65-8.55-12.39-10.64-27.95-10.56-43.1,0-.86-1.42-1.11-1.55-.21-2.12,14.81.57,30.96,8.68,43.69-.61.07-1.22.13-1.82.21-.97.13-1.04,1.55,0,1.57.98.01,1.98,0,2.97-.01,1.99,2.86,4.25,5.53,6.83,7.94.61.57,1.25,1.11,1.88,1.65-1.56.4-3.11.8-4.66,1.19-1.03.26-.6,1.84.44,1.59,1.97-.46,3.96-.9,5.94-1.37,3.18,2.52,6.65,4.71,10.3,6.61-1.18.8-2.36,1.59-3.53,2.39-.86.59-.07,1.99.83,1.42,1.49-.97,2.98-1.93,4.47-2.91,12.52,6.04,27.08,8.45,40.5,7.01,9.61-1.03,18.84-4.16,26.73-9.28,1.69.82,3.39,1.6,5.13,2.24.92.34,1.47-1.08.65-1.55-1.24-.73-2.54-1.37-3.86-1.99,2.43-1.73,4.71-3.67,6.82-5.79,3.31,1.05,6.69,1.83,10.03,2.04.95.06,1.1-1.37.22-1.63-2.85-.82-5.7-1.5-8.53-2.21,2.51-2.78,4.73-5.87,6.6-9.27.05-.08.08-.17.13-.25,2.15.32,4.31.71,6.49,1.12,1.21.23,1.71-1.49.51-1.86Z"/>
    <path class="st9" d="M283.04,174.9c-1.36,0-2.51.47-3.87-.02-1.4-.5-2.48-1.58-3.02-2.96,1.95-.03,3.14-2.08,3.09-3.89-.02-.77-.59-1.23-1.31-1.31-2.95-.34-5.88-.79-8.82-1.18-1.06-.14-1.94.79-1.41,1.83,1.13,2.21,2.97,3.91,5.18,4.93-.26.67-.71,1.27-1.27,1.72-.57.45-1.28.82-2,.95-.78.14-1.53-.1-2.29.21-.59.24-1.1.96-.65,1.6,1.07,1.51,3.14,1.24,4.68.61,1.56-.64,2.87-1.87,3.6-3.4.07-.14.13-.31.19-.46.63,1.33,1.75,2.39,3.11,3.04,1.61.76,4.01,1.18,5.41-.17.55-.53.13-1.5-.62-1.5ZM272.26,169.38c-.34-.32-.66-.66-.95-1.03,1.62.23,3.23.47,4.84.73-.3.32-.7.58-1.07.86-.08-.12-.16-.24-.27-.34-.78-.76-1.92-1.07-2.55-.22Z"/>
    <path class="st9" d="M260.4,150.79c-1.92-4.6-9.14-4.49-12.69-2.22-.94.6-.09,2.08.88,1.5,1.81-1.08,3.9-1.47,5.98-1.02,1.95.42,3.09,1.65,4.75,2.57.5.28,1.34-.2,1.08-.83Z"/>
    <path class="st9" d="M301.58,148.89c-.47-2.2-3.29-3.15-5.28-3.16-2.28,0-4.4,1.06-5.52,3.07-.47.85.75,1.54,1.29.75,1-1.47,2.78-2.11,4.52-1.92,1.68.18,2.54,1.22,3.8,2.17.61.46,1.33-.3,1.19-.92Z"/>
  </g>
  <g>
    <path class="st10" d="M189.41,507.25c-7.44-10.82-15.19-21.44-23.27-31.82-2.41-3.1-5.32-9.33-9.93-9.54-2.27-.1-5,.94-7.2,1.41-1.19.25-2.38.53-3.57.8,0-.17-.03-.35-.13-.54-8.52-15.19-17.53-30.17-26.8-44.99,6.47,2.81,13.52,4.74,20.27,6.63.96.27,1.76-.64,1.38-1.51-2.41-5.56-6.14-10.17-10.14-14.72-5.04-5.74-9.54-11.56-13.47-18.08-2.65-4.39-5.16-11.35-9.95-14-2.29-1.27-5.22-1.7-7.73-2.38-3.54-.96-7.07-2-10.65-2.82-8.72-13.22-17.31-26.66-26.88-39.31-7.8-10.31-17.22-19.79-30.25-23.58-.63-.18-1.49.23-1.49.95.18,16.93,5.62,33.52,10.81,49.48,4.06,12.49,8.68,24.8,13.82,36.9-.09.07-.17.16-.2.3-1.49,6.09-3.42,12.36-4.13,18.59-.66,5.79,1.6,10.2,4.37,15.15,6.84,12.25,13.85,24.42,20.93,36.55.53.91,2.04.68,2.13-.42.6-6.71,1.64-13.57,1.83-20.32,9.02,15.5,19,30.47,29.99,44.73.18.23.42.25.62.16-2.28,7.32,1.36,14.69,5.53,20.87,6.36,9.42,12.97,18.68,19.45,28.01.56.81,1.81.86,2.22-.16,2.45-6.05,4.89-12.11,7.32-18.16,1.53,6.36,5.64,11.57,11.44,15.03.75.45,1.52-.18,1.47-.95-.26-3.66-.54-7.32-.82-10.98,5.27,4.07,10.54,8.14,15.8,12.2.73.57,1.82-.24,1.65-1.07-1.1-5.19-3.19-9.82-6.32-14.04,3.48.31,8.55.64,8.74-2.77.09-1.62-1.81-3.58-2.66-4.8-2.33-3.37-4.95-6.64-8.09-9.34,7.55-.29,15.07-.37,22.72.23.83.06,1.69-.93,1.18-1.68ZM106.98,383.73c2.29,2.11,3.81,5.72,5.38,8.37,1.64,2.75,3.25,5.52,4.98,8.22,5.87,9.14,14.78,16.48,19.74,26.13-6.88-2.11-13.56-4.77-20.44-6.83-8.87-14.1-17.96-28.07-27.12-41.94,2.28.72,4.58,1.37,6.86,2.04,3.32.98,8,1.63,10.59,4.02ZM31.86,315.35c13.34,4.54,22.5,15.28,30.34,26.2,1.42,1.98,2.82,3.96,4.21,5.95-4.24,9.17-13.72,14.78-24.09,14.22-.09,0-.16.02-.23.03-4.83-14.97-9.87-30.57-10.23-46.4ZM77.34,447.13c-1.2,6.34-1.5,12.93-1.97,19.4-5.63-9.7-11.2-19.43-16.72-29.2-3.27-5.79-7.16-11.26-6.67-18.19.4-5.66,1.99-11.41,3.09-17.03.91,2.12,1.84,4.23,2.78,6.34,5.89,13.12,12.41,25.98,19.56,38.49-.02.06-.06.11-.07.18ZM109.67,493.39c-19.16-26.47-35.91-54.52-49.31-84.17-6.76-14.96-12.69-30.27-17.75-45.87,10.48.94,20.64-4.69,25.24-13.79,7.56,10.89,14.83,21.99,22.09,33.06,18.4,28.05,35.55,56.76,52.98,85.37-4.11.74-8.16,1.85-12.21,2.83-2.37.57-4.98.89-6.96,2.34-.42-.15-.97.26-.8.68-2.29,2.18-3.9,5.55-5.59,8.1-2.53,3.81-5.19,7.55-7.66,11.4-.01.02-.01.03-.02.05ZM142.21,524.25c-2.22,5.48-4.44,10.97-6.66,16.46-5.02-7.22-10.04-14.45-15.06-21.67-5.35-7.7-12.01-16.39-7.44-26.07.27-.58.03-1.03-.4-1.26,3.3-4.84,6.33-10.06,10.17-14.41.46-.53.98-.99,1.52-1.42,6.55,9.37,13.45,18.53,20.14,27.81,1.57,2.18,3.4,4.26,3.11,7.3-.14,1.41-1.26,3.12-1.79,4.42l-3.58,8.85ZM170.91,518.02c1.56,2.12,4.59,4.28.36,5.32-1.76.43-4.21,0-5.99,0-.95,0-1.52,1.02-.91,1.75,3.1,3.68,5.25,7.62,6.6,12.06-5.06-3.87-10.12-7.75-15.19-11.62-.76-.58-1.63.26-1.57,1.02.31,3.8.63,7.6.96,11.4-5.3-3.39-8.63-8.29-10.13-14.38.17-.41.33-.82.5-1.23,1.48-3.68,5-8.92,4.71-13.22.16.16.39.27.69.26,4.37-.2,8.69-.44,13-.61-.26.3-.33.74.03,1.15,2.34,2.69,4.82,5.23,6.94,8.1ZM150.82,507.32c-.4.07-.64.34-.76.66-.05-.21-.1-.42-.18-.63-.96-2.57-3.71-5.22-5.32-7.41-2.22-3.01-4.45-6.01-6.71-8.99-4.05-5.35-8.13-10.69-12.41-15.86,4.32-2.82,10.32-3.49,15.51-4.69,4.32-.78,8.81-1.98,13.05-2.1,5.86-.17,10.13,8.19,13.26,12.31,6.44,8.47,12.66,17.09,18.7,25.83-11.56-.82-23.69-1.07-35.13.88Z"/>
    <path class="st10" d="M66.87,371.87s-.05.02-.08.03c-.17-.09-.38-.15-.61-.13-4.57.32-7,6.21-6.3,9.96.82,4.43,5.39,6.68,9.8,5.8,4.43-.89,7.74-4.72,6.81-9.13-.9-4.28-5.12-7.29-9.62-6.53ZM69.26,385.45c-3.26.64-6.58-.83-7.24-4.15-.73-3.71,1.72-6.12,4.75-7.82.14-.08.24-.17.32-.27,7.4-.21,10.45,10.62,2.17,12.23Z"/>
    <path class="st10" d="M84.92,395.05c-2.86-1.45-9.07-.39-9.53,3.28-2.21,2.68-2.28,6.81.23,9.42,3.19,3.33,9.42,2.61,12.19-.98,2.92-3.78,1.29-9.6-2.89-11.72ZM85.74,406.05c-2.28,2.32-6.79,2.61-8.88,0-1.34-1.67-1.45-3.97-.64-5.9.37,0,.77-.2.95-.57.7-1.49,1.22-2.52,2.99-3.03,1.56-.46,3.19-.19,4.48.73,2.72,1.94,3.58,6.25,1.11,8.77Z"/>
  </g>
  <g>
    <path class="st7" d="M324.9,26.2c-11.01,2.62-19.76,10.98-22.49,21.9-9.7-3.58-20.16-7.11-30.7-8.55.27-.47.25-1.11-.34-1.4-7.1-3.49-31.98-9.31-30.52,5.38-12.87,6.3-26.89,20.51-21.5,35.36,6.64,18.32,30.49,15.68,44.85,10.2,16.84-6.43,32.87-19.76,40.15-36.57,8.65,6.04,19.77,4.42,29.88,2.9,1.19-.18,1.29-1.94.33-2.47-5.24-2.84-10.48-5.67-15.72-8.51,4.68-4.57,7.28-10.26,7.8-16.91.07-.91-.91-1.54-1.73-1.34ZM257.58,36.32c3.42.63,6.67,1.72,9.95,2.77-7.56-.6-15.12,0-22.42,2.63-.94.34-1.91.73-2.88,1.17.76-7.01,9.62-7.62,15.35-6.56ZM269.29,83.91c-13.55,6.57-43.1,13.48-47.83-7.94-4.07-18.46,19.77-32.19,34.82-33.92,15.76-1.81,31.04,3.74,45.7,8.78.11.46.45.78.85.96-8.64,13.61-18.71,24.92-33.54,32.11ZM315.57,43.8c-.66.57-.43,1.74.29,2.13,4.71,2.54,9.41,5.07,14.12,7.61-8.53,1.57-17.9,2.1-25.23-2.75-.02-.02-.03-.03-.05-.05,2.15-10.27,9.03-18.22,18.95-21.33-.85,5.74-3.57,10.51-8.07,14.39Z"/>
    <path class="st7" d="M232.97,63.51c-1.61-.87-3.67-1.02-5.22.08-2.57,1.83-2.31,6.91,1.14,7.54,1.07.19,1.53-1.36.44-1.66-1.81-.49-1.62-3.57.03-4.18.94-.35,2.03.01,2.8.59.96.71,1.22,1.79,1.99,2.63.5.56,1.65.3,1.77-.48.3-1.89-1.39-3.68-2.96-4.53Z"/>
    <path class="st7" d="M271.53,56.72c-1.86-2.4-3.6-5.33-5.76-7.43-.84-.81-1.71-1.56-2.97-1.09-1.72.64-2.77,3.37-3.68,4.73-1.74,2.62-3.54,5.2-5.17,7.88-.01-.02-.03-.04-.04-.07-.5-.76-1.68-.1-1.24.71,1.92,3.54,4.01,7,5.88,10.57.33.64,1.23.7,1.71.22,2.5-2.46,5.31-4.47,8.64-5.62,1.66-.57,4.45-.43,5.74-1.83,2.34-2.52-1.76-6.32-3.12-8.08ZM271.28,63.57c-1.23.69-3.04.77-4.39,1.34-2.73,1.15-5.12,2.81-7.21,4.86-1.55-2.36-3.04-4.77-4.56-7.15.28-.06.54-.21.75-.49,2.24-3.09,3.99-6.87,6.52-9.72.34-.69.9-1.15,1.68-1.39.27.35.55.71.82,1.06.52.41.96,1.14,1.38,1.74-1.31.78-2.59,1.64-3.89,2.44-.63.39-.08,1.35.58,1,1.39-.76,2.84-1.46,4.22-2.24,1.03,1.31,2.05,2.63,3.08,3.94,1.22,1.56,3.35,3.31,1.02,4.62Z"/>
    <path class="st7" d="M268.66,57.85c-1.82,1.28-3.41,2.95-5.08,4.43-.47.42.21,1.04.68.67,1.71-1.35,3.6-2.59,5.15-4.13.48-.48-.17-1.39-.75-.98Z"/>
  </g>
</svg>