<?xml version="1.0" encoding="UTF-8"?>
<svg id="Capa_1" xmlns="http://www.w3.org/2000/svg" version="1.1" xmlns:xlink="http://www.w3.org/1999/xlink" viewBox="0 0 283.46 283.46">
  <!-- Generator: Adobe Illustrator 29.0.0, SVG Export Plug-In . SVG Version: 2.1.0 Build 186)  -->
  <defs>
    <style>
      .st0 {
        font-size: 29.18px;
      }

      .st0, .st1, .st2, .st3, .st4, .st5, .st6, .st7, .st8, .st9, .st10, .st11, .st12, .st13 {
        fill: #fff;
      }

      .st0, .st1, .st2, .st3, .st5, .st6, .st7, .st8, .st9, .st10, .st11, .st12, .st13 {
        font-family: ISOCPEUR, ISOCPEUR;
      }

      .st1 {
        font-size: 29.18px;
      }

      .st2 {
        font-size: 29.18px;
      }

      .st3 {
        font-size: 29.18px;
      }

      .st14, .st15 {
        fill: none;
      }

      .st16 {
        clip-path: url(#clippath-1);
      }

      .st5 {
        font-size: 29.18px;
      }

      .st6 {
        font-size: 29.18px;
      }

      .st7 {
        font-size: 29.18px;
      }

      .st8 {
        font-size: 29.18px;
      }

      .st9 {
        font-size: 29.18px;
      }

      .st15 {
        stroke: #007d77;
        stroke-miterlimit: 10;
        stroke-width: .15px;
      }

      .st17 {
        fill: #007d77;
      }

      .st18 {
        clip-path: url(#clippath-2);
      }

      .st19 {
        clip-path: url(#clippath);
      }

      .st10 {
        font-size: 29.18px;
      }

      .st11 {
        font-size: 29.18px;
      }

      .st12 {
        font-size: 29.18px;
      }

      .st13 {
        font-size: 29.18px;
      }
    </style>
    <clipPath id="clippath">
      <rect class="st14" x="0" y="32.79" width="283.46" height="217.89"/>
    </clipPath>
    <clipPath id="clippath-1">
      <rect class="st14" x="0" y="32.79" width="283.47" height="217.89"/>
    </clipPath>
    <clipPath id="clippath-2">
      <rect class="st14" x="0" y="32.79" width="283.47" height="217.89"/>
    </clipPath>
  </defs>
  <g class="st19">
    <g class="st16">
      <path class="st17" d="M8.46,178.25v48.66c0,6.39,5.18,11.58,11.58,11.58h243.39c6.4,0,11.58-5.18,11.58-11.58v-48.66c0-73.6-59.67-133.27-133.27-133.27S8.46,104.65,8.46,178.25"/>
      <path class="st15" d="M8.46,178.25v48.66c0,6.39,5.18,11.58,11.58,11.58h243.39c6.4,0,11.58-5.18,11.58-11.58v-48.66c0-73.6-59.67-133.27-133.27-133.27S8.46,104.65,8.46,178.25Z"/>
    </g>
    <g class="st18">
      <path class="st4" d="M171.23,149.9c-3.13-1.97-5.61-4.02-8.67-5.11-1.07-.38-1.2-1.63-1.18-2.79.06-3.33-.03-6.66.03-9.99.03-1.5-.38-2.35-1.92-3.04-6.66-2.99-13.2-6.23-17.88-12.35-3.16,5.63-8.56,8.12-13.91,10.67-1.05.5-2.1,1.08-3.21,1.41-2.09.63-2.62,1.98-2.54,4.05.15,3.77-.03,7.56.08,11.34.06,2.03-.45,3.07-2.73,2.76-1.99-.27-3.93.29-5.81.93-1.92.65-2.63.31-2.6-1.95.05-3.86.04-7.54.11-11.43.03-1.6-1.38-1.65-3.04-.96-7.44,3.08-13.33,6-20.6,12.08q-2.19,1.83-7.57,7.13c-.67.66-3.74,4-7.17,8.85-.12.17-.24.35-.35.53-3.09,5.05-6.98,13.19-9.24,19.21-3.7,9.83-5.03,20.12-5.1,30.61-.02,2.21.57,2.58,2.6,2,10.29-2.94,19.61-7.72,27.9-14.46,3.71-3.02,3.65-3.11,6.21,1.13.42.69.8,1.4,1.22,2.08,2.28,3.67,2.32,3.72-.93,6.43-8.05,6.69-17.15,11.41-27.14,14.56-5.25,1.66-10.59,2.79-15.97,3.8-2.9.54-3.05.11-3.49-2.78-1.68-11.12-2.22-22.3-2.08-33.52.11-8.59.93-17.13,2.25-25.65,1.97-12.7,5.8-25.07,11.78-36.45,5.24-9.99,11.82-19.01,20.66-26.17,11.48-9.3,24.32-15.8,38.86-18.83,2.14-.45,2.23.3,2.23,1.92-.03,9.27-.08,18.54-.05,27.81,0,.66-.11,1.5.46,1.93.6.46,1.36-.38,1.89-.83,6.86-5.81,11.41-12.73,11.08-22.2-.4-11.33-.53-22.67-.9-34-.07-2.17.52-2.7,2.69-2.72,4.27-.02,1.96,0,7.28.02,1.92.01,2.62.66,2.61,2.72-.07,12.96.11,25.92.03,38.87-.05,7.8,6.48,14.35,12.7,17.22,1.33.61,1.53.01,1.53-1.13-.01-9.11.04-18.23-.04-27.34-.02-2.07.22-2.78,2.66-2.24,7.87,1.75,15.36,4.52,22.49,8.18,15.21,7.79,26.79,19.19,35.17,34.24,6.02,10.82,9.89,22.21,12.33,34.2,2.89,14.15,3.73,28.5,2.84,42.87-.44,7.09-.47,14.26-1.96,21.29-.41,1.9-.88,2.58-2.94,2.26-11.54-1.75-22.61-4.84-32.8-10.74-1.69-.98-2.19-2.17-1.63-3.72.71-1.98.99-4.01,1.24-6.05.26-2.11.81-2.86,2.91-1.49,5,3.24,10.42,5.63,16.05,7.58.25.08.46.29.71.38,5.19,1.86,5.78,1.4,5.73-4.04-.11-12.51-3.18-24.28-8.25-35.66-5.12-11.49-12.78-20.94-22.57-28.65-5.98-4.71-12.66-8.38-19.67-11.41-1.68-.73-2.48.03-2.49,1.02-.02,4.93,0,10.03.04,15.64M219.32,153.66c-4.99-14.32-11.85-27.51-22.64-38.39-6.67-6.73-14.24-12.01-23.44-14.74-1.29-.38-2.09-.56-2.08,1.15.02,5.94.04,11.88.02,17.82,0,1.08.43,1.54,1.51,1.81,15.11,3.75,27.58,11.88,38.31,22.98,2.91,3.01,5.29,6.46,8.32,9.37M63.51,151.58c1.37-.03,1.77-.7,2.18-1.25,2.51-3.34,5.37-6.29,8.53-9.05,9.74-8.54,19.75-16.43,32.95-19.03,1.29-.25,3.57-.64,3.84-3.16.63-5.89-.06-11.52.02-17.27.02-1.54-.43-1.85-1.88-1.42-3.9,1.17-7.49,2.99-11.03,4.94-4.02,2.22-7.48,5.21-10.86,8.23-6.2,5.54-10.92,12.31-15.05,19.47-3.37,5.85-6.63,11.77-8.69,18.54"/>
      <path class="st4" d="M166.96,220.06c-7.93-.34-16.46-1.54-25.1-2.68-5.96-.79-11.96-1.23-17.9-2.32-11.43-2.09-19.89-8.06-25-18.54-1.93-3.96-3.88-7.88-4.64-12.35-1.38-8.13.89-15.24,5.9-21.36,2.63-3.22,5.84-6.39,9.63-8.18,2.35-1.11,3.95-1.27,6.39-1.57,3.7-.45,7.5-.22,11.19.77,4.37,1.18,8.3.03,11.99-2.47,7.61-5.16,15.34-5.3,23.17-.43,6.74,4.2,12.82,9.19,17.26,15.82,7.15,10.66,12.57,22.09,13.63,35.12.38,4.72-.32,9.27-3.84,13.02-1.38,1.47-3.03,2.19-4.76,2.83-5.56,1.56-11.3,2.49-17.94,2.36"/>
    </g>
    <text class="st13" transform="translate(40.02 224.12) rotate(-95.22)"><tspan x="0" y="0">E</tspan></text>
    <text class="st2" transform="translate(38.82 211.31) rotate(-91.6)"><tspan x="0" y="0">N</tspan></text>
    <text class="st2" transform="translate(38.39 196.6) rotate(-87.64)"><tspan x="0" y="0">T</tspan></text>
    <text class="st11" transform="translate(38.97 181.92) rotate(-83.27)"><tspan x="0" y="0">R</tspan></text>
    <text class="st2" transform="translate(40.7 167.37) rotate(-78.61)"><tspan x="0" y="0">E</tspan></text>
    <text class="st10" transform="translate(43.13 154.88) rotate(-73.24)"><tspan x="0" y="0">N</tspan></text>
    <text class="st6" transform="translate(47.19 140.98) rotate(-66.11)"><tspan x="0" y="0">A</tspan></text>
    <text class="st0" transform="translate(53.68 126.11) rotate(-57.29)"><tspan x="0" y="0">M</tspan></text>
    <text class="st11" transform="translate(62.76 112.49) rotate(-50.76)"><tspan x="0" y="0">I</tspan></text>
    <text class="st10" transform="translate(65.87 108.34) rotate(-45.04)"><tspan x="0" y="0">E</tspan></text>
    <text class="st13" transform="translate(74.59 99.44) rotate(-36.3)"><tspan x="0" y="0">N</tspan></text>
    <text class="st0" transform="translate(86.11 90.92) rotate(-27.28)"><tspan x="0" y="0">T</tspan></text>
    <text class="st2" transform="translate(98.88 84.31) rotate(-19.07)"><tspan x="0" y="0">O</tspan></text>
    <text class="st5" transform="translate(171.04 79.64) rotate(20.26)"><tspan x="0" y="0">K</tspan></text>
    <text class="st1" transform="translate(186.97 85.93) rotate(27.02)"><tspan x="0" y="0">I</tspan></text>
    <text class="st9" transform="translate(194.18 89.42) rotate(34.61)"><tspan x="0" y="0">N</tspan></text>
    <text class="st8" transform="translate(209.14 100.26) rotate(45.68)"><tspan x="0" y="0">E</tspan></text>
    <text class="st3" transform="translate(220.49 112.22) rotate(56.37)"><tspan x="0" y="0">S</tspan></text>
    <text class="st3" transform="translate(229.65 126.78) rotate(63.38)"><tspan x="0" y="0">I</tspan></text>
    <text class="st12" transform="translate(233.16 133.46) rotate(69.51)"><tspan x="0" y="0">O</tspan></text>
    <text class="st8" transform="translate(238.98 149.66) rotate(76.56)"><tspan x="0" y="0">L</tspan></text>
    <text class="st3" transform="translate(242.39 164.22) rotate(82.38)"><tspan x="0" y="0">O</tspan></text>
    <text class="st7" transform="translate(244.51 180.73) rotate(87.6)"><tspan x="0" y="0">G</tspan></text>
    <text class="st12" transform="translate(245.05 196.92) rotate(91.37)"><tspan x="0" y="0">Í</tspan></text>
    <text class="st9" transform="translate(244.88 207.52) rotate(95.29)"><tspan x="0" y="0">A</tspan></text>
  </g>
</svg>